<?xml version="1.0" encoding="utf-8"?>
<svg width="346px" height="346px" viewBox="0 0 346 346" version="1.1" xmlns:xlink="http://www.w3.org/1999/xlink" xmlns="http://www.w3.org/2000/svg">
  <defs>
    <linearGradient gradientUnits="userSpaceOnUse" x1="88.51257" y1="-11.509746" x2="-49.905777" y2="114.75757" id="gradient_1">
      <stop offset="0%" stop-color="#E3DBF9" />
      <stop offset="54.000004%" stop-color="#CCBBFA" />
      <stop offset="100%" stop-color="#7848FC" />
    </linearGradient>
    <linearGradient gradientUnits="userSpaceOnUse" x1="707.7722" y1="-351.39655" x2="575.3945" y2="-218.51846" id="gradient_2">
      <stop offset="0%" stop-color="#E3DBF9" />
      <stop offset="54.000004%" stop-color="#CCBBFA" />
      <stop offset="100%" stop-color="#7848FC" />
    </linearGradient>
    <linearGradient gradientUnits="userSpaceOnUse" x1="-5.221543" y1="29.303997" x2="120.850006" y2="132.84128" id="gradient_3">
      <stop offset="0%" stop-color="#E3DBF9" />
      <stop offset="56%" stop-color="#CDBDFA" />
      <stop offset="100%" stop-color="#7848FC" />
    </linearGradient>
    <linearGradient gradientUnits="userSpaceOnUse" x1="61.25183" y1="53.300823" x2="69.236145" y2="150.49911" id="gradient_4">
      <stop offset="0%" stop-color="#272BAA" />
      <stop offset="45%" stop-color="#1D2190" />
      <stop offset="100%" stop-color="#050751" />
    </linearGradient>
    <linearGradient gradientUnits="userSpaceOnUse" x1="41.24667" y1="-11.751583" x2="20.17397" y2="96.45605" id="gradient_5">
      <stop offset="0%" stop-color="#3E42D3" />
      <stop offset="100%" stop-color="#050751" />
    </linearGradient>
    <linearGradient gradientUnits="userSpaceOnUse" x1="24.97877" y1="-1.8279474" x2="17.713907" y2="66.877815" id="gradient_6">
      <stop offset="0%" stop-color="#E3E3FE" />
      <stop offset="47%" stop-color="#BBBBFE" />
      <stop offset="100%" stop-color="#4F4FFF" />
    </linearGradient>
    <linearGradient gradientUnits="userSpaceOnUse" x1="108.226906" y1="7.4962482" x2="30.34404" y2="90.26614" id="gradient_7">
      <stop offset="0%" stop-color="#292DB3" />
      <stop offset="56%" stop-color="#22259F" />
      <stop offset="100%" stop-color="#050751" />
    </linearGradient>
    <linearGradient gradientUnits="userSpaceOnUse" x1="45.183666" y1="0.71617216" x2="-7.96014" y2="100.546364" id="gradient_8">
      <stop offset="0%" stop-color="#AADBFF" />
      <stop offset="60.000004%" stop-color="#91D1FF" />
      <stop offset="81%" stop-color="#5AB9FF" />
      <stop offset="100%" stop-color="#22A1FF" />
    </linearGradient>
    <linearGradient gradientUnits="userSpaceOnUse" x1="25.749918" y1="-8.613544" x2="-7.3352723" y2="45.79824" id="gradient_9">
      <stop offset="0%" stop-color="#AADBFF" />
      <stop offset="47%" stop-color="#85CBFF" />
      <stop offset="100%" stop-color="#22A1FF" />
    </linearGradient>
    <linearGradient gradientUnits="userSpaceOnUse" x1="22.586205" y1="2.899702" x2="0.96370596" y2="35.750423" id="gradient_10">
      <stop offset="0%" stop-color="#FB9C9A" />
      <stop offset="64%" stop-color="#FC8886" />
      <stop offset="84%" stop-color="#FD5450" />
      <stop offset="100%" stop-color="#FF1712" />
    </linearGradient>
    <linearGradient gradientUnits="userSpaceOnUse" x1="26.254595" y1="39.59408" x2="12.910399" y2="-2.6361032" id="gradient_11">
      <stop offset="0%" stop-color="#000000" />
      <stop offset="52.999996%" stop-color="#121212" />
      <stop offset="100%" stop-color="#4D4D4D" />
    </linearGradient>
    <path d="M0 0L346 0L346 346L0 346L0 0Z" id="path_1" />
    <path d="M2.30995 60.3725C8.62757 76.1495 30.3127 101.216 49.7951 101.213C77.9371 101.214 108.062 27.5171 108.062 27.5171C119.437 19.7717 112.474 9.01711 107.334 3.44618e-06L99.5041 19.3277C99.5041 19.3277 65.6285 66.7062 51.0278 64.5721C36.4256 62.442 20.0134 7.23988 11.8941 6.53923C3.77476 5.83858 -4.00602 44.5916 2.30996 60.3725L2.30995 60.3725Z" id="path_2" />
    <path d="M38.0132 12.2324C25.0289 20.2509 -3.74125 45.4306 0.404782 64.4647C6.39785 91.9631 34.8026 120.969 34.8026 120.969C35.8925 130.48 44.0166 132.665 45.721 133.277C47.1933 133.804 41.4287 120.439 42.0505 119.368C44.0522 115.927 47.993 121.134 48.9064 117.769C49.485 115.646 44.4485 111.754 39.97 112.25C39.97 112.25 19.7364 74.3747 25.4919 57.369C31.2517 40.3631 71.7399 41.6358 74.5157 10.2165C75.2576 1.81983 71.9345 -8.71509 38.0132 12.2324L38.0132 12.2324Z" id="path_3" />
    <clipPath id="mask_1">
      <use xlink:href="#path_1" />
    </clipPath>
    <clipPath id="mask_2">
      <use xlink:href="#path_2" />
    </clipPath>
    <clipPath id="mask_3">
      <use xlink:href="#path_3" />
    </clipPath>
  </defs>
  <g id="palm-recognition">
    <path d="M0 0L346 0L346 346L0 346L0 0Z" id="Background" fill="#FFFFFF" fill-opacity="0" fill-rule="evenodd" stroke="none" />
    <g clip-path="url(#mask_1)">
      <path d="M165.873 73.4586C306.658 69.7764 320.099 173.285 290.542 174.126C233.423 175.751 229.665 207.129 192.025 241.879C131.23 298.01 59.6883 301.214 63.9565 154.886C65.7507 93.4723 108.749 74.9523 165.873 73.4586L165.873 73.4586Z" id="Shape" fill="#F5F2FD" fill-rule="evenodd" stroke="none" />
      <path d="M263.576 187.819C304.257 178.735 312.084 197.02 303.546 198.94C287.046 202.65 289.294 208.383 277.797 217.555C261.018 230.94 241.659 225.699 237.118 208.92C234.093 197.741 247.07 191.505 263.576 187.819L263.576 187.819Z" id="Shape" fill="#F5F2FD" fill-rule="evenodd" stroke="none" />
      <path d="M249.532 228.862C246.845 228.085 244.437 227.328 241.937 226.285C238.684 225.006 235.823 222.872 232.646 221.442C229.62 219.989 226.318 219.405 223.167 218.315C221.44 217.793 219.575 216.843 217.649 216.278C218.336 216.084 219.053 215.874 219.761 215.687C220.201 215.585 220.65 215.461 221.069 215.352C221.696 215.666 222.338 215.947 222.994 216.196C224.44 216.772 225.922 217.311 227.438 217.683C230.928 218.484 234.481 219.103 238.097 219.261C241.91 219.335 245.529 218.249 249.162 218.082C250.368 218.042 251.604 218.19 252.736 218.226C252.93 218.217 253.179 218.049 253.157 217.838C252.993 217.552 252.595 217.465 252.328 217.271C249.751 215.693 246.924 214.562 243.889 214.376C240.083 214.076 236.322 214.885 232.734 214.024C231.784 213.847 230.848 213.608 229.93 213.308C231.268 212.678 232.615 212.025 233.913 211.305C236.101 210.08 238.121 208.516 240.194 207.072C243.206 204.912 246.398 202.991 249.143 200.433C249.548 200.09 250.531 199.108 249.445 199.215C248.042 199.619 246.663 200.159 245.24 200.48C236.82 201.686 229.047 205.684 223.169 211.833C222.339 212.715 221.544 213.635 220.882 214.651C220.835 214.708 220.797 214.772 220.769 214.841C219.402 215.207 218.071 215.611 216.71 216.029C216.66 216.037 216.63 216.053 216.58 216.061C216.074 216.216 215.567 216.371 215.082 216.533C215.443 215.972 215.828 215.342 216.131 215.015C217.077 213.868 217.983 213.317 219.08 212.35C221.749 209.943 224.091 206.965 225.378 203.521C226.568 200.425 227.875 197.75 229.758 194.996C230.656 192.332 220.33 202.537 219.836 203.002C217.498 205.142 215.982 208.075 214.746 211.028C214.161 212.58 213.691 214.349 212.986 215.63C212.678 216.312 212.195 216.882 211.832 217.519C211.83 217.554 211.834 217.59 211.843 217.624C210.763 217.988 209.689 218.405 208.623 218.798C208.594 218.814 208.573 218.806 208.544 218.822C208.051 219.007 207.558 219.192 207.077 219.407C207.101 219.339 207.103 219.264 207.127 219.196C207.223 218.813 207.367 218.445 207.554 218.098C209.734 214.556 212.511 211.424 214.866 207.993C216.111 206.187 217.35 204.328 218.158 202.269C218.748 200.77 219.036 198.836 219.662 197.578C220.436 196.168 221.365 194.862 222.307 193.586C222.436 193.351 223.361 192.4 223.6 191.848C223.721 190.949 222.474 191.865 222.118 191.996C218.892 193.879 216.038 196.476 213.745 199.521C212.218 201.383 210.74 203.312 209.713 205.524C207.827 209.32 207.082 214.02 205.347 217.589C204.829 218.625 204.196 219.6 203.459 220.494C203.303 220.669 203.349 220.812 203.477 220.856C202.104 221.449 200.765 222.079 199.419 222.732C199.762 220.638 201.031 218.484 202.211 216.453C203.602 214.087 204.817 211.609 206.011 209.124C206.802 207.39 207.537 205.61 207.924 203.735C208.427 200.833 208.492 197.958 209.162 195.266C209.383 194.396 209.67 193.543 210.02 192.716C210.154 192.33 210.431 191.943 210.336 191.528C210.242 191.318 209.953 191.396 209.791 191.518C209.392 191.914 209.131 192.459 208.767 192.892C207.619 194.351 206.085 196.439 204.915 198.169C202.51 201.811 200.319 205.73 199.299 210.055C198.542 213.276 198.549 216.838 197.913 219.846C197.704 221.07 197.509 222.325 196.93 223.446C196.914 223.492 196.861 223.575 196.869 223.552C196.822 223.688 196.674 223.841 196.72 223.984C196.73 224.007 196.751 224.023 196.776 224.028C194.977 224.957 193.218 225.975 191.472 227.023C191.495 226.751 191.453 226.457 191.526 226.178C191.571 225.634 191.82 224.779 192.05 224.045C192.663 222.275 193.592 220.69 194.287 218.82C195.79 215.374 195.89 211.57 196.23 207.9C196.561 203.845 196.23 199.841 196.194 195.812C196.21 195.133 196.261 194.455 196.348 193.781L196.372 193.713C196.525 193.031 196.644 192.343 196.728 191.65C196.78 191.362 196.439 191.245 196.241 191.405C195.949 191.558 195.988 191.927 195.915 192.207C195.806 192.729 195.748 193.243 195.689 193.756C195.248 195.789 194.565 197.968 193.903 199.951C192.652 203.153 190.932 206.193 190.12 209.573C189.404 212.402 189.615 215.372 190.046 218.191C190.325 219.66 190.665 220.744 190.561 222.284C190.56 223.733 190.458 224.994 190.119 226.249C189.959 226.779 189.765 227.271 189.563 227.786C189.542 227.85 189.553 227.92 189.593 227.974C189.64 228.016 189.701 228.037 189.764 228.033C188.532 228.774 187.309 229.529 186.094 230.298C186.362 229.872 186.589 229.423 186.774 228.956C187.583 227.101 187.831 225.076 188.092 223.082C188.432 220.581 188.502 218.038 188.017 215.582C187.656 213.525 186.947 211.577 186.478 209.558C185.962 207.191 185.703 204.774 185.706 202.351C185.711 202.219 185.725 202.088 185.746 201.958C185.821 201.603 185.889 201.271 185.935 200.931C185.399 200.414 185.165 201.02 185.069 202.055C184.587 204.481 183.685 207.295 183.442 209.855C183.172 213.6 183.602 217.385 184.404 220.993C184.837 223.049 185.835 224.92 185.868 226.889C185.89 228.066 185.576 228.974 185.202 230.192C185.169 230.358 185.005 230.556 185.136 230.728L185.178 230.743C185.159 230.788 185.15 230.837 185.153 230.887C179.615 234.487 174.314 238.576 169.623 243.384C169.044 244.023 168.436 244.677 167.893 245.353C167.777 245.618 168.096 245.728 168.3 245.621C168.993 244.996 169.542 244.169 170.221 243.515C175.519 238.128 181.527 233.648 187.979 229.678C190.036 231.381 191.58 233.67 193.563 235.449C197.414 238.79 202.57 239.736 207.083 241.78C207.538 241.912 208.263 242.367 208.589 241.768C208.617 241.686 208.591 241.597 208.525 241.542C208.237 241.341 207.925 241.207 207.622 241.052C205.826 240.176 204.498 239.055 203.05 237.589C202.543 237.057 202.028 236.548 201.505 236.062C202.243 236.546 203.018 236.993 203.794 237.439C206.187 238.928 209.162 239.907 211.607 240.626C214.045 241.557 216.295 242.921 218.248 244.653C218.698 244.936 219.113 245.46 219.642 245.516C220.48 245.298 219.76 244.693 219.447 244.356C216.834 241.85 214.577 238.933 211.71 236.746C210.046 235.561 208.472 234.736 206.983 233.458C205.37 232.265 203.996 230.721 202.293 229.649C200.103 228.332 197.522 228.074 195.386 227.081C194.771 226.792 194.315 226.456 193.859 226.12C195.464 225.201 197.054 224.328 198.7 223.499L199.853 224.508C201.949 226.581 204.38 228.236 206.895 229.716C208.854 230.877 211.028 231.553 212.881 232.881C216.936 235.632 220.253 240.237 224.566 243C225.656 243.708 226.694 244.499 227.799 245.162C228.252 245.369 228.889 245.869 229.328 245.36C229.504 244.989 229.03 244.774 228.843 244.557C228.216 243.958 227.567 243.352 227.014 242.678C224.172 239.178 221.605 235.366 218.097 232.551C214.383 229.435 210.477 226.532 206.115 224.463C204.503 223.677 202.875 222.732 201.034 222.68C200.823 222.681 200.613 222.668 200.404 222.64C201.954 221.88 203.553 221.187 205.186 220.532C205.687 220.325 206.181 220.139 206.682 219.931C207.608 220.836 208.186 222.13 209.282 222.89C212.922 225.599 216.954 227.655 221.183 229.144C227.83 231.571 234.362 234.671 241.509 235.237C242.096 235.263 242.706 235.499 243.292 235.32C244.118 234.793 242.656 234.541 242.331 234.378C241.125 233.935 240.271 233.716 239.025 233.183C237.656 232.455 236.347 231.62 235.01 230.802C231.51 228.65 228.021 226.4 224.209 224.878C220.225 223.372 216.349 222.514 212.57 220.621C211.438 220.102 210.343 219.546 209.272 218.921C211.195 218.188 213.102 217.5 215.057 216.88C215.121 217.106 215.497 217.261 215.649 217.441C217.013 218.599 218.692 219.257 220.23 220.119C222.639 221.563 224.911 223.265 227.449 224.473C231.408 226.123 235.245 227.502 239.514 228.395C242.192 228.991 244.921 229.58 247.697 229.549C248.158 229.734 250.264 229.573 249.532 228.862L249.532 228.862ZM192.496 227.098C192.509 227.128 192.53 227.135 192.544 227.165C192.557 227.195 192.929 227.705 192.798 227.533C193.463 228.78 194.377 229.859 195.307 230.892C195.473 231.102 195.646 231.29 195.82 231.477C194.204 230.445 192.429 229.685 190.567 229.227C190.154 229.109 189.827 229.022 189.508 228.911C190.488 228.284 191.481 227.687 192.496 227.098L192.496 227.098Z" id="Shape" fill="url(#gradient_1)" fill-rule="evenodd" stroke="none" />
      <path d="M222.323 169.435C219.698 171.351 217.3 173.043 214.616 174.687C211.184 176.861 207.407 178.335 203.919 180.379C200.528 182.285 197.581 184.802 194.368 186.972C192.664 188.194 190.533 189.346 188.646 190.716C189.021 190.056 189.408 189.364 189.805 188.689C190.063 188.275 190.31 187.845 190.547 187.446C191.264 187.057 191.959 186.636 192.644 186.198C194.175 185.235 195.706 184.225 197.137 183.115C200.39 180.536 203.554 177.825 206.42 174.861C209.372 171.695 211.303 168.189 213.938 165.069C214.824 164.04 215.874 163.067 216.761 162.134C216.901 161.967 216.964 161.685 216.788 161.612C216.45 161.626 216.081 161.923 215.733 162.062C212.589 163.539 209.591 165.42 207.147 167.884C204.03 170.947 201.782 174.451 198.409 177.087C197.651 177.743 196.642 178.496 195.741 179.128C196.284 177.732 196.816 176.32 197.261 174.919C198.002 172.552 198.36 170.18 198.85 167.815C199.514 164.351 200.494 160.841 200.656 157.43C200.705 156.941 200.714 155.691 199.97 156.648C199.208 158 198.566 159.391 197.727 160.723C192.371 168.098 189.32 176.453 189.497 184.159C189.53 185.237 189.617 186.303 189.879 187.299C189.886 187.361 189.905 187.421 189.935 187.476C189.173 188.781 188.465 190.072 187.746 191.395C187.714 191.441 187.703 191.472 187.671 191.518C187.402 192.01 187.134 192.502 186.888 192.98C186.74 192.433 186.559 191.838 186.544 191.441C186.399 190.15 186.674 189.152 186.78 187.811C186.998 184.529 186.538 181.274 184.926 178.7C183.503 176.359 182.485 174.102 181.845 171.328C180.524 169.42 180.353 182.507 180.326 183.123C180.159 186.012 181.213 188.555 182.494 190.873C183.216 192.037 184.19 193.198 184.617 194.346C184.896 194.899 184.958 195.552 185.16 196.133C185.204 196.151 185.215 196.167 185.248 196.169C184.701 197.232 184.199 198.314 183.685 199.378C183.674 199.409 183.653 199.424 183.642 199.455C183.406 199.949 183.171 200.443 182.968 200.939C182.935 200.89 182.88 200.855 182.847 200.806C182.633 200.559 182.463 200.276 182.346 199.971C181.339 196.607 181.093 192.919 180.304 189.456C179.891 187.628 179.435 185.783 178.501 184.212C177.822 183.067 176.587 181.986 176.117 180.915C175.645 179.655 175.369 178.31 175.125 176.966C175.047 176.756 175.034 175.568 174.8 175.127C174.216 174.637 173.957 176.079 173.786 176.434C172.751 179.957 172.536 183.477 173.083 186.721C173.323 188.809 173.651 190.885 174.533 192.707C175.954 195.936 178.922 198.598 180.286 201.602C180.678 202.507 180.931 203.465 181.037 204.446C181.05 204.652 181.193 204.676 181.322 204.588C180.725 205.996 180.182 207.392 179.65 208.805C178.337 207.609 177.682 205.61 177.051 203.739C176.329 201.546 175.389 199.452 174.427 197.373C173.724 195.957 172.945 194.569 171.829 193.432C170.03 191.751 167.918 190.449 166.403 188.72C165.918 188.158 165.494 187.545 165.138 186.894C164.949 186.614 164.869 186.214 164.485 186.114C164.255 186.101 164.094 186.378 164.063 186.566C164.058 187.073 164.27 187.528 164.319 188.021C164.543 189.617 164.948 191.808 165.359 193.541C166.271 197.138 167.553 200.675 170.03 203.406C171.876 205.438 174.559 206.977 176.338 208.815C177.099 209.522 177.893 210.23 178.297 211.202C178.319 211.235 178.342 211.315 178.331 211.299C178.397 211.397 178.399 211.587 178.542 211.611C178.57 211.611 178.597 211.601 178.618 211.583C177.949 213.495 177.378 215.412 176.841 217.331C176.653 217.194 176.401 217.101 176.246 216.918C175.872 216.645 175.417 216.066 175.041 215.555C174.175 214.272 173.69 212.805 172.812 211.411C171.363 208.656 168.579 206.922 166.079 205.045C163.281 203.009 160.02 201.55 156.964 199.832C156.471 199.529 156 199.191 155.554 198.822L155.52 198.772C155.122 198.345 154.694 197.946 154.24 197.579C154.064 197.411 153.716 197.645 153.686 197.881C153.58 198.192 153.887 198.32 154.042 198.502C154.354 198.81 154.686 199.098 155.035 199.364C156.228 200.616 157.348 202.134 158.335 203.549C159.792 205.987 160.771 208.748 162.695 210.895C164.277 212.723 166.671 213.834 169.118 214.695C170.434 215.099 171.507 215.284 172.586 216.039C173.674 216.668 174.544 217.301 175.231 218.13C175.497 218.493 175.741 218.871 175.964 219.263C176.003 219.311 176.067 219.333 176.128 219.319C176.196 219.297 176.256 219.257 176.302 219.202C175.925 220.551 175.563 221.904 175.217 223.261C175.103 222.858 174.937 222.471 174.724 222.109C173.944 220.626 172.61 219.54 171.309 218.456C169.688 217.086 167.829 215.924 165.614 215.266C163.794 214.676 161.791 214.425 159.917 213.944C157.817 213.379 155.799 212.546 153.912 211.465C153.819 211.405 153.73 211.336 153.648 211.261C153.449 211.049 153.239 210.847 153.019 210.657C152.223 210.883 152.501 211.341 153.206 211.87C154.664 213.327 156.094 215.304 157.835 216.618C160.444 218.47 163.616 219.75 166.938 220.643C168.812 221.172 170.976 221.146 172.482 221.972C173.384 222.464 173.828 223.122 174.459 223.964C174.559 224.064 174.583 224.287 174.812 224.252L174.855 224.223C174.875 224.259 174.906 224.289 174.944 224.307C173.444 230.512 172.492 236.732 172.543 242.752C172.583 243.515 172.613 244.308 172.708 245.058C172.82 245.269 173.146 245.049 173.22 244.832C173.277 243.98 173.071 243.161 173.095 242.307C173.069 235.528 174.266 228.546 176.182 221.412C179.025 220.426 181.918 220.123 184.762 219.232C190.198 217.452 194.825 213.538 199.791 210.639C200.236 210.315 201.128 209.904 200.925 209.371C200.87 209.31 200.781 209.292 200.706 209.327C200.336 209.482 200 209.685 199.652 209.872C197.63 210.998 195.778 211.626 193.576 212.204C192.791 212.399 192.017 212.611 191.255 212.838C192.179 212.429 193.104 211.973 194.028 211.516C196.966 210.155 199.961 208.084 202.359 206.345C204.871 204.723 207.584 203.438 210.43 202.522C210.985 202.267 211.694 202.147 212.138 201.727C212.611 200.929 211.609 201.271 211.118 201.387C207.249 202.492 203.342 203.12 199.521 204.576C197.366 205.457 195.55 206.419 193.458 207.114C191.336 207.949 189.132 208.432 187.033 209.395C184.379 210.66 182.225 212.713 179.856 214.074C179.251 214.409 178.622 214.698 177.974 214.938C178.502 213.193 179.053 211.481 179.68 209.741L181.314 209.212C184.464 208.353 187.555 207.032 190.578 205.564C192.938 204.425 195.098 202.895 197.504 201.917C202.651 199.709 208.633 198.925 213.986 196.506C215.346 195.899 216.729 195.372 218.067 194.732C218.567 194.442 219.427 194.125 219.377 193.536C219.232 193.227 218.71 193.532 218.405 193.594C217.479 193.861 216.531 194.142 215.603 194.314C210.814 195.179 205.998 195.678 201.217 197.399C196.054 199.162 190.905 201.18 186.037 203.941C184.222 204.951 182.275 205.907 180.837 207.428C180.676 207.607 180.506 207.778 180.328 207.939C180.934 206.309 181.628 204.668 182.376 203.014C182.601 202.504 182.836 202.01 183.06 201.499C184.444 201.115 185.855 201.191 187.259 200.602C192.06 198.724 196.669 196.234 201.001 193.333C207.874 188.812 215.166 184.677 221.02 178.929C221.485 178.448 222.126 178.039 222.437 177.47C222.668 176.548 221.368 177.665 220.998 177.867C219.75 178.686 218.936 179.307 217.589 180.121C216.002 180.954 214.381 181.689 212.749 182.456C208.474 184.458 204.133 186.408 200.092 188.945C195.934 191.633 192.345 194.511 188.052 196.86C186.802 197.584 185.552 198.261 184.269 198.888C185.178 196.958 186.109 195.061 187.128 193.152C187.347 193.195 187.749 192.948 188 192.898C189.906 192.257 191.676 191.134 193.493 190.219C196.408 188.824 199.413 187.657 202.249 186.053C206.496 183.448 210.448 180.827 214.361 177.634C216.844 175.647 219.359 173.613 221.445 171.272C221.935 170.966 223.413 169.13 222.323 169.435L222.323 169.435ZM177.674 216.505C177.707 216.507 177.729 216.493 177.762 216.494C177.794 216.496 178.46 216.405 178.231 216.441C179.674 216.423 181.179 216.125 182.662 215.794C182.946 215.746 183.218 215.681 183.491 215.617C181.47 216.535 179.564 217.686 177.81 219.047C177.408 219.342 177.094 219.578 176.768 219.798C177.041 218.704 177.347 217.612 177.674 216.505L177.674 216.505Z" id="Shape" fill="url(#gradient_2)" fill-rule="evenodd" stroke="none" />
      <path d="M62.1434 230.337C61.7259 228.46 62.4672 226.305 63.8399 225.012L64.2478 224.669C63.9148 224.438 63.5317 224.203 63.2573 223.877C62.75 223.329 62.5375 222.579 62.5252 221.847C62.5429 221.307 62.7481 220.789 63.1057 220.384C63.4135 220.032 63.8399 219.767 64.2164 219.497C64.8189 218.944 65.6045 218.608 66.3696 218.801C66.751 217.598 67.7715 216.879 69.4647 217.127C70.7847 217.317 72.0856 218.312 72.0643 219.722C72.1222 220.508 71.7442 221.383 71.9922 222.01C72.2777 222.791 73.3715 223.264 73.7813 222.316C74.1237 221.564 73.8159 220.756 73.244 220.076C72.0965 218.766 70.4856 217.568 71.0593 215.6C72.0059 212.53 77.1298 211.889 78.5303 214.936C78.5934 215.06 78.6414 215.191 78.673 215.326C78.7003 215.303 78.7003 215.303 78.7503 215.308C78.743 215.047 78.7741 214.786 78.8425 214.534C79.0218 213.919 79.3197 213.39 79.3674 212.84C79.4379 212.316 79.268 211.949 78.948 211.568C78.3449 210.961 77.264 210.338 77.0776 209.288C76.9892 208.852 77.087 208.305 77.4591 208.086C77.8039 207.889 78.4046 207.941 78.4885 208.427C78.5169 208.682 78.3222 208.892 78.1133 208.974C78.0088 209.016 77.813 208.949 77.826 208.798C77.8575 208.725 77.9619 208.684 77.9891 208.661L78.0435 208.615C78.1969 208.301 77.9595 208.129 77.6647 208.33C77.221 208.796 77.4658 209.751 78.0464 210.33C78.3664 210.711 78.9684 211.041 79.3298 211.526C79.5998 211.902 79.8111 212.374 79.745 212.848C79.6887 213.498 79.2461 214.242 79.1756 214.765C79.1682 214.908 79.1474 215.05 79.1137 215.189C79.3715 215.089 79.6398 215.019 79.9135 214.98C81.155 214.911 82.4589 215.579 83.0686 216.691C83.405 217.255 83.6416 217.872 83.768 218.516C84.4045 218.445 85.127 218.256 85.7962 218.389C85.8463 218.394 85.9193 218.425 85.9692 218.43C85.8821 218.271 85.8179 218.139 85.7308 217.98C83.9391 213.917 82.983 209.522 81.1142 205.477C80.9257 205.032 80.71 204.61 80.4988 204.138C80.4444 204.184 80.3628 204.252 80.3585 204.302C79.9147 204.768 79.4849 205.361 78.8584 205.61C78.2054 205.839 77.4797 205.709 76.9468 205.268C76.6181 204.987 76.4209 204.642 76.1466 204.316C75.7807 203.881 75.2561 203.533 74.75 203.262C73.998 202.92 73.1143 202.642 72.674 201.897C72.3398 201.389 72.1644 200.794 72.0619 200.231C70.5081 200.701 68.8074 200.831 67.4751 199.909C67.3707 199.951 67.239 200.015 67.2347 200.065C66.61 200.467 65.9471 200.806 65.2556 201.078C62.7946 202.126 60.0465 200.955 59.3937 198.301C59.3609 198.097 59.3053 197.865 59.2726 197.66C58.0898 197.634 57.5671 196.681 57.2347 195.568C57.0865 194.95 57.1156 194.322 56.9946 193.681C56.9477 193.349 56.855 192.963 56.7667 192.526C55.978 193.189 55.0787 194.549 53.9336 193.794C52.1627 192.405 52.0047 189.567 53.3164 187.815C53.0493 187.732 52.777 187.666 52.5013 187.618C52.2553 187.547 51.3642 187.646 50.8951 187.53C49.8255 187.362 49.9523 186.187 50.3905 185.494C51.1374 184.172 52.2777 183.116 53.6527 182.473C53.73 182.455 53.7844 182.409 53.8616 182.39C53.7974 182.259 53.7374 182.077 53.696 181.973C53.6032 181.588 53.6383 181.184 53.7957 180.821C54.7155 178.934 57.4287 179.345 59.3317 179.787C59.1551 178.747 59.4506 177.682 60.138 176.882C61.2475 175.717 63.0762 174.69 64.6174 175.53C65.2575 175.131 66.062 175.15 66.773 175.388C67.3281 175.564 67.8503 175.831 68.3185 176.178C68.4143 176.236 68.4828 176.318 68.5787 176.377C68.1919 175.309 67.8553 174.246 67.4414 173.202C67.3372 173.189 67.2423 173.135 67.1768 173.053C66.787 172.313 66.3223 172.147 65.6475 171.786C64.4351 171.227 63.4698 171.018 62.0942 170.596C60.7414 170.202 59.4202 169.734 58.1033 169.217C57.5736 169.801 56.984 170.204 56.463 170.689C56.0192 171.154 55.8627 171.796 55.6066 172.43C55.201 173.328 54.6182 174.236 53.701 174.635C53.0458 174.93 52.3184 175.025 51.6096 174.908C51.5596 174.904 51.5367 174.877 51.5095 174.9C51.5037 174.953 51.4817 175.004 51.4465 175.045C51.0496 175.843 50.5026 176.628 49.6898 176.986C48.9773 177.353 47.8173 177.354 47.2265 177.479C46.249 177.697 45.6152 178.323 44.6023 178.664C43.7167 178.991 42.6612 178.95 41.8492 178.426C41.1058 177.984 40.7104 177.016 40.9842 176.183C41.0934 175.869 41.2552 175.576 41.4627 175.316C41.1747 175.101 40.9085 174.859 40.668 174.592C39.9506 173.849 39.7913 172.776 40.47 171.927C40.7506 171.598 41.276 171.064 41.4021 170.772C41.9263 169.96 41.5852 168.947 41.7721 167.955C42.0979 166.52 43.203 165.406 44.5151 164.813C43.9652 163.883 44.4113 162.812 44.8622 161.969C45.1144 161.385 45.0892 160.803 44.8136 160.199C44.488 159.591 44.2267 159.115 44.6476 158.622C44.456 158.504 44.2916 158.364 44.0772 158.219C43.4111 157.758 42.9613 156.837 43.2809 156.057C43.4744 155.57 43.8823 155.227 44.2402 154.88C44.6564 154.4 44.956 153.83 45.1155 153.216C45.2719 152.573 45.3598 151.85 45.8666 151.238C47.1479 149.836 49.843 149.288 51.1647 150.915C51.7777 151.699 51.7423 152.982 52.7032 153.242C52.8052 153.259 52.9098 153.25 53.0079 153.218C52.2393 152.193 51.8198 150.921 50.7662 150.275C49.9771 149.778 48.8876 149.255 48.2605 148.344C47.9306 147.786 47.7725 146.99 48.102 146.388C48.3955 145.909 48.945 145.68 49.4487 145.395L49.5302 145.327C49.2383 145.032 48.9452 144.739 48.6511 144.446L48.6213 144.466C48.1111 144.823 47.4115 144.718 47.0281 144.228C46.7995 143.956 46.6852 143.82 46.4479 143.648C46.3926 143.603 46.3232 143.579 46.2521 143.581C45.9016 143.55 45.6155 143.652 45.1881 143.64C43.9051 143.604 43.6174 142.268 44.1316 141.279C44.3121 140.942 44.5841 140.713 44.8789 140.512C44.6731 140.267 44.4401 140.045 44.2345 139.8C44.18 139.846 44.0756 139.887 44.0212 139.933C43.3772 140.382 43.1719 141.297 42.9938 142.189C42.82 143.031 42.3372 143.948 41.456 144.225C40.2613 144.626 38.9531 144.008 38.203 143.06C37.7043 142.412 37.4146 141.681 36.6898 141.316C36.4525 141.144 35.6646 140.924 35.2814 140.689C34.8434 140.445 34.5101 140.048 34.344 139.575C34.2586 139.337 34.2204 139.085 34.2316 138.833L34.1772 138.879C33.8275 139.277 33.5936 139.762 33.5009 140.283C33.4261 140.857 33.6788 141.434 33.9216 141.833C34.3386 142.549 35.2117 143.533 34.5876 144.336C34.2483 144.761 33.6976 144.713 33.2156 144.747C33.1884 144.77 33.2156 144.747 33.2657 144.751C32.6878 144.726 32.2027 145.088 32.1412 145.511C32.0836 145.885 32.5614 145.901 32.9106 145.653L33.0193 145.562C33.0922 145.594 32.8691 145.549 32.8463 145.522C32.7048 145.409 32.8679 145.272 33.0181 145.285C33.2456 145.279 33.5601 145.432 33.4111 145.697C33.2349 145.984 32.8716 146.104 32.5669 146.128C31.6028 146.196 31.5263 145.332 32.2018 144.81C32.7185 144.376 33.588 144.527 33.9471 144.457C34.6467 144.24 34.4472 143.341 34.0901 142.805C33.4858 141.921 32.7987 140.827 33.2716 139.734C33.4608 139.296 33.6815 138.786 34.1308 138.547C34.1093 138.514 34.0742 138.493 34.0351 138.488C33.702 138.258 33.5604 138.145 33.2187 138.014C32.4667 137.672 31.1546 138.264 29.9619 138.06C28.7376 137.929 27.6091 136.697 27.9444 135.439C28.1911 134.628 28.8983 134.034 29.638 133.644C28.7118 132.984 27.4745 133.003 26.4926 132.111C25.7981 131.395 27.0428 130.999 27.5422 130.765C27.9371 130.572 28.7671 130.013 29.4222 130.02C29.4994 130.001 29.5724 130.033 29.6496 130.014L29.6268 129.987C29.5755 129.705 29.5558 129.35 29.7548 129.09C30.5824 127.977 33.4957 128.405 34.8007 129.35L34.7778 129.323C34.4093 128.636 34.2993 127.839 34.4679 127.077C35.0189 125.585 36.4871 124.634 38.0742 124.742L38.1243 124.746C37.8708 124.545 37.6284 124.331 37.3982 124.103C37.0051 123.752 36.5752 123.444 36.116 123.186C34.552 122.319 32.69 121.981 31.2749 120.85C30.9462 120.569 30.4932 119.976 30.9056 119.583C31.2547 119.335 31.7238 119.452 32.1243 119.486C32.9437 119.633 33.9263 119.642 34.6803 119.38C35.5845 119.13 36.4602 118.626 37.4342 118.736C37.5366 118.65 37.6224 118.546 37.6876 118.43C38.6737 117.229 40.3247 117.094 41.7937 117.02C42.8078 116.956 43.6348 116.726 44.4289 116.29C46.149 115.354 47.7522 113.728 49.8219 113.705C50.7583 113.704 51.6345 114.167 52.1609 114.942C52.788 115.853 52.5934 117.223 51.4764 117.606C50.1316 117.994 49.4737 116.272 48.3624 116C48.2395 115.964 47.8662 115.906 47.6845 115.966C47.4442 116.052 47.2202 116.177 47.022 116.338C46.7501 116.566 46.5238 116.849 46.2333 117.001C46.3019 117.082 46.3433 117.187 46.2259 117.378C45.8321 117.848 45.1499 117.865 44.6461 118.149C44.0152 118.448 43.2722 119.165 42.7295 119.9C42.2456 120.539 41.8456 121.664 41.3986 122.457C41.0331 123.129 40.5266 123.713 39.914 124.17C39.7994 124.258 39.6744 124.332 39.542 124.39C39.5444 124.945 39.574 125.477 39.5808 125.982C39.6079 125.959 39.658 125.963 39.6852 125.94C39.917 125.861 40.1381 125.753 40.3433 125.619C40.9834 125.221 41.54 124.613 42.2853 124.451C42.7216 124.362 43.195 124.429 43.5509 124.686C43.884 124.917 44.1768 125.32 44.1922 125.725C44.2818 126.439 43.8478 127.082 43.4683 127.68C43.2878 128.017 43.1574 128.359 43.213 128.591C43.2857 128.774 43.4266 128.922 43.606 129.003C43.902 129.079 44.2382 128.982 44.7245 128.898C44.8244 128.876 44.927 128.868 45.0292 128.874L45.0465 128.674C45.0874 127.619 45.8619 126.828 46.9174 126.869C49.1188 126.783 50.7306 130.301 47.9169 130.763C47.5077 130.829 47.0486 130.89 46.6481 130.855C46.6896 131.125 46.7166 131.396 46.729 131.669C46.8808 131.748 47.017 131.853 47.1306 131.981C47.5007 132.366 47.5303 132.898 47.487 133.399C47.4259 134.118 47.0878 134.785 46.5441 135.259C45.9186 135.784 45.1861 135.797 44.7338 136.363C44.5392 136.573 44.4774 136.996 44.5286 137.278C44.6212 137.664 44.7868 138.082 44.8022 138.487C44.8217 138.748 44.7904 139.011 44.71 139.26L45.3959 140.076L45.4775 140.008C45.9999 139.657 46.5039 139.28 46.9873 138.878C47.9475 137.977 48.5579 137.047 49.0893 135.857C49.2154 135.565 49.3415 135.274 49.4405 135.005C48.3994 133.049 50.3709 132.413 50.2622 130.462C50.243 130.051 50.1941 129.642 50.1159 129.239C49.8218 128.853 49.6431 128.391 49.6007 127.908C49.5754 127.326 49.7232 126.784 49.5391 126.289C49.3822 125.771 49.0708 125.29 49.1184 124.739C49.1377 123.934 50.0786 123.839 50.6895 124.069C51.8691 124.423 52.8282 125.288 53.4739 126.276C53.8952 126.943 54.185 127.674 54.243 128.461C54.2386 128.511 54.2615 128.538 54.2343 128.561C54.5228 128.505 54.8024 128.411 55.0656 128.28C55.1156 128.285 55.5736 127.946 55.8008 127.94C56.1474 127.907 56.4954 127.99 56.789 128.177C57.5194 128.77 57.7374 129.747 58.1186 130.587C58.7568 131.954 59.3863 133.42 59.1748 134.99C59.1618 135.14 59.1259 135.263 59.1129 135.414C59.5085 135.393 59.9049 135.436 60.2871 135.54C60.8247 135.738 61.358 135.986 61.7238 136.421C62.0329 136.93 62.0545 137.562 61.781 138.091C61.3885 138.838 60.7575 139.137 60.255 139.699C59.5937 140.347 59.6213 141.484 59.0428 142.342C58.6362 142.963 58.1335 143.524 57.4939 143.923C57.4395 143.968 57.335 144.01 57.2807 144.056C57.3263 144.11 57.3448 144.187 57.3906 144.242C57.5148 144.555 57.6575 144.946 57.7805 144.981C58.1995 145.093 58.8979 144.599 59.5944 144.71C60.6869 144.905 61.5328 145.911 61.5877 147.026C61.5782 148.008 60.9225 148.884 60.5114 149.555C60.382 149.75 60.2789 149.962 60.2048 150.184C61.6666 150.487 63.0247 151.109 64.148 152.114C64.8468 152.78 65.6328 153.604 65.6692 154.641C65.601 155.719 64.4434 156.275 63.9149 157.137C63.68 157.52 63.5965 158.194 63.7305 158.684C63.9176 159.634 64.237 160.553 64.6794 161.414C65.1706 162.44 65.812 163.479 65.7352 164.658C65.7044 165.045 65.5946 165.422 65.4124 165.765C65.3809 165.838 65.3221 165.934 65.2906 166.007C65.8646 167.242 66.4156 168.449 66.9352 169.73C67.8088 171.873 68.5551 174.03 69.3241 176.215C69.3834 176.223 69.4435 176.219 69.5015 176.205C71.0931 176.167 73.2094 177.358 72.7487 179.184C72.665 179.67 72.4878 180.134 72.2269 180.551C72.1997 180.574 72.1682 180.647 72.141 180.67C72.545 180.95 72.9065 181.287 73.2143 181.671C73.9286 182.741 74.0489 184.264 73.4215 185.395C73.2833 185.611 73.1307 185.816 72.9647 186.011L72.8559 186.103C73.1641 186.911 73.4724 187.719 73.8074 188.505C75.2122 188.299 75.6076 189.266 76.4208 190.068C76.8137 190.48 77.2556 190.619 77.5733 190.445C78.0226 190.206 78.0702 189.656 77.896 189.338C77.4845 188.848 76.565 188.693 75.8858 188.382C75.3253 188.157 74.7821 187.732 74.5294 187.155C74.2853 186.48 74.2521 185.748 74.4343 185.054C74.6124 184.161 75.7084 181.987 76.8282 182.159C76.9289 181.747 77.1449 181.372 77.451 181.078C78.4386 180.155 80.0565 179.816 81.256 180.525C81.5934 180.705 81.9265 180.936 82.1279 181.231C82.3496 181.612 82.485 182.037 82.5245 182.475C82.5512 182.549 82.5532 182.629 82.53 182.703C82.6894 182.696 82.8491 182.702 83.0077 182.719C83.7271 182.857 84.6892 183.394 85.204 183.565C85.8188 183.744 86.4928 183.828 87.0128 184.226C88.2863 185.244 88.3708 186.89 87.6216 188.262C87.4998 188.504 87.3552 188.718 87.2377 188.91C88.0854 189.311 88.9062 189.735 89.754 190.136C91.391 191.035 92.2192 192.241 91.5389 193.695C92.9169 194.672 93.885 196.596 92.9912 198.183C92.119 199.52 90.3194 199.919 89.3731 200.946C88.9565 201.389 88.5628 201.86 88.0363 202.117C87.6002 202.294 87.126 202.357 86.6588 202.3C86.6043 202.346 86.5456 202.441 86.4912 202.487C85.9745 202.922 85.2466 202.884 84.6314 202.704C83.6933 202.472 83.0477 201.483 82.3 201.091C82.0813 200.996 81.7493 201.043 81.5361 201.176C81.114 201.391 80.7104 201.684 80.2473 201.795C80.8255 202.981 81.3995 204.215 81.9234 205.446C83.7694 209.464 84.6754 213.854 86.5215 217.872C87.1097 219.234 87.9654 220.417 88.9126 221.71C88.9701 221.337 89.0777 220.968 89.3311 220.662C89.838 220.05 90.4776 219.652 90.8114 219C91.2899 218.133 91.2079 217.042 91.8321 216.239C92.9088 214.869 95.0759 215.183 96.2131 216.315C96.8477 216.849 97.0416 217.522 97.0811 218.231C98.2875 217.402 99.5397 216.628 100.99 216.476C102.213 216.33 103.762 216.792 104.263 217.995C104.454 218.995 103.748 219.867 103.347 220.715C103.049 221.244 102.901 221.786 102.776 222.355L102.826 222.359C103.877 222.45 104.955 222.518 106.02 222.459C107.079 222.45 108.288 222.177 109.273 222.741C109.948 223.102 110.306 223.915 109.968 224.617C109.224 226.216 107.084 226.763 105.442 226.796C103.678 226.795 102.294 226.751 100.903 227.967C100.464 228.383 99.7849 229.232 99.2095 229.762C98.521 230.434 97.7595 231.074 96.8654 231.501C96.7708 231.528 96.6816 231.571 96.6021 231.629C97.878 233.202 99.1497 234.825 100.317 236.49C100.473 236.73 100.678 236.975 100.807 237.238C100.844 237.393 100.658 237.502 100.503 237.539C100.044 237.601 99.8829 237.133 99.6816 236.838C99.123 236.008 98.4873 235.196 97.8743 234.412C95.8341 231.764 93.6806 229.258 91.6676 226.588C89.9332 224.193 87.9899 221.882 86.4959 219.332C86.1468 219.579 85.7561 219.721 85.4298 219.996C84.9447 220.357 84.3161 221.211 84.3053 221.916C84.1642 222.963 84.4466 224.072 84.8821 224.866C85.3221 225.61 85.8423 226.008 86.6018 225.973C86.7521 225.986 87.1013 225.739 86.9911 225.553C86.8768 225.417 86.8039 225.385 86.5764 225.391C86.4492 225.405 86.3391 225.219 86.4708 225.155C86.6024 225.09 86.7254 225.126 86.8527 225.112C87.4218 225.237 87.6517 225.787 87.0707 226.09C86.567 226.374 85.9021 226.19 85.4186 225.947C84.3965 225.228 83.9542 223.929 83.8809 222.738C83.7476 221.597 84.2401 220.473 85.1691 219.798C85.4912 219.574 85.8088 219.399 86.1537 219.202C85.4844 219.069 84.7577 219.308 83.9208 219.362C83.7435 219.372 83.5704 219.332 83.3932 219.342L83.4389 219.396C83.5303 219.505 83.8189 219.958 83.8702 220.24C84.2951 221.739 82.5869 222.247 81.4226 222.298C80.2039 222.394 79.0829 221.944 78.0885 222.362C77.709 222.491 77.3577 222.692 77.0539 222.953C77.4141 223.161 77.8017 223.346 78.1619 223.554C79.3199 224.158 80.4693 224.863 81.1248 226.029C81.9176 227.359 82.3338 228.958 81.9264 230.461C81.7124 231.476 81.1166 232.534 80.0721 232.948C79.2452 233.179 78.6891 232.904 78.309 232.342C78.5307 234.151 78.1942 236.291 76.899 237.565C75.9615 238.493 74.5047 239.3 73.1969 238.682C72.5941 238.41 72.0878 237.962 71.7448 237.396C71.3505 236.707 71.2295 236.066 70.6406 235.586C70.2117 235.297 69.7798 235.335 69.2652 235.165C68.6273 234.91 68.1429 234.375 67.9535 233.715C67.8793 233.406 67.8281 233.124 67.7812 232.792C67.3949 232.885 66.9815 233 66.4951 233.084C65.5176 233.302 64.7824 232.482 63.9887 232.035C63.514 231.691 62.393 231.241 62.1434 230.337L62.1434 230.337ZM53.4502 168.209L53.5046 168.163C53.6318 168.149 53.7178 168.03 53.7808 167.884C53.991 167.519 54.1443 167.125 54.2355 166.713C54.3777 165.944 54.3012 165.08 53.8527 164.436C53.4041 163.792 52.7119 163.632 52.0222 164.025C51.5457 164.287 50.6687 164.513 50.8083 165.232C51.1895 166.071 52.1058 166.554 52.5959 167.303C52.7434 167.475 52.8709 167.664 52.9758 167.865C53.1086 168.078 53.187 168.338 53.4503 168.209L53.4502 168.209ZM52.1016 145.625C52.3952 145.146 53.1622 144.733 53.457 144.532C53.7877 144.207 54.0182 143.874 54.1258 143.505C53.0265 142.805 51.5335 142.575 50.5106 142.739C49.947 142.841 49.6262 143.343 49.3098 143.794C50.1229 144.596 50.9318 145.448 51.7177 146.272C51.8111 146.038 51.9407 145.819 52.1018 145.625L52.1016 145.625ZM49.0146 146.038C48.1574 146.62 48.4178 147.979 49.2395 148.68C49.9112 149.369 51.1867 149.782 51.9455 150.629C52.4299 151.15 52.6782 151.777 53.0811 152.366C53.1683 152.525 53.374 152.77 53.484 152.956C53.6903 152.8 53.8207 152.564 53.843 152.306C53.8653 152.049 53.7774 151.794 53.6009 151.605C53.4876 151.46 53.3423 151.344 53.1765 151.265C53.2661 151.424 53.3196 151.601 53.3334 151.783C53.3601 151.856 53.362 151.936 53.3388 152.011C53.2529 152.129 52.9526 152.103 52.9656 151.953C52.9274 151.521 52.6704 150.995 52.2502 150.605C51.7516 149.957 50.053 149.482 50.284 148.266C50.3774 147.77 50.6624 147.391 51.0159 147.094L51.2334 146.911C50.7947 146.445 50.356 145.978 49.9402 145.539C49.6502 145.69 49.2868 145.81 49.0148 146.038L49.0146 146.038ZM35.5991 130.025C35.9259 130.911 35.8219 132.112 36.5653 132.555C36.784 132.649 36.8243 132.476 36.7588 132.067C36.7249 131.585 36.445 131.031 36.0791 130.596C35.9464 130.383 35.7591 130.215 35.5991 130.025L35.5991 130.025ZM54.3013 135.653C54.0782 135.609 53.6963 135.651 53.6703 135.951C53.6313 136.402 53.6424 136.857 53.8352 137.252C53.9223 137.411 53.9778 137.642 54.1824 137.61L54.2096 137.587C54.2281 137.664 54.3511 137.7 54.4283 137.681C54.6057 137.671 54.6459 137.498 54.6818 137.375C54.8165 136.984 54.96 136.492 54.7672 136.097C54.7263 135.863 54.5373 135.683 54.3013 135.653L54.3013 135.653ZM61.8277 183.584C62.0259 184.207 62.6846 185.045 63.2853 185.097C63.9763 184.981 63.5753 183.786 63.1224 183.192C62.8339 182.738 62.1677 182.277 61.6889 181.984C61.6912 182.539 61.6936 183.094 61.8277 183.584L61.8277 183.584ZM72.2479 186.428C71.6898 186.758 70.9988 186.875 70.3709 186.845C70.4115 187.832 70.4021 188.815 69.9465 189.709C69.3506 190.766 68.0713 191.564 67.1426 190.349C67.0054 190.185 66.8955 189.999 66.7811 189.863C66.2676 189.97 65.7398 189.95 65.3492 190.092C64.4505 190.569 64.6469 191.797 65.5992 192.157C66.2825 192.418 67.0249 192.583 67.555 193.158C67.8751 193.539 68.1136 193.988 68.4609 194.346L68.5751 194.482L68.5795 194.432C68.5499 193.9 68.1328 193.183 68.1892 192.532C68.3605 191.135 69.6987 190.242 70.8333 189.659C71.4647 189.361 71.8896 188.818 72.5663 188.574C72.7209 188.537 72.9025 188.477 73.057 188.44C72.7674 187.708 72.4962 187.055 72.2479 186.428L72.2479 186.428ZM93.8721 228.216C94.0598 228.43 94.234 228.656 94.3936 228.892L94.4938 228.9C94.7669 228.949 95.0172 228.971 95.1717 228.934C95.5036 228.887 96.0345 228.58 96.0605 228.279C96.121 227.579 95.2418 227.25 94.5867 227.244C94.4366 227.231 93.9415 227.415 93.7823 227.502C93.6778 227.544 93.5962 227.612 93.4645 227.676C93.5868 227.866 93.723 228.047 93.8721 228.216L93.8721 228.216Z" id="Shape" fill="url(#gradient_3)" fill-rule="evenodd" stroke="none" />
      <path d="M124.652 75.9513C124.79 75.737 125.08 75.4819 125.407 75.2132C126.377 74.4241 127.762 73.5861 127.894 73.4966C129.997 72.1099 132.206 70.8378 134.328 69.4668C135.247 68.8693 136.154 68.2539 137.029 67.6015C137.312 67.386 139.2 66.0991 139.61 65.1803C139.712 64.9648 139.74 64.7218 139.692 64.4883C139.622 64.2355 139.448 64.0244 139.213 63.9082C138.772 63.6682 138.162 63.5983 137.494 63.6493C136.242 63.7444 134.756 64.2485 133.994 64.453C131.465 65.1434 128.975 65.9678 126.534 66.9226C124.079 67.8701 121.674 68.9143 119.307 69.9857C112.571 73.038 105.935 76.3307 99.514 79.9078C93.0045 83.5371 86.7155 87.4605 80.7789 91.7301C78.0656 93.6775 75.0752 95.7572 72.5004 98.0996C70.6873 99.7518 69.0819 101.536 67.9173 103.492C67.7403 103.791 67.8392 104.177 68.1382 104.354C68.4372 104.531 68.8231 104.432 69.0001 104.133C70.0955 102.272 71.6124 100.576 73.3251 98.9984C75.8496 96.6728 78.7896 94.6066 81.4526 92.6696C87.3388 88.3935 93.5712 84.4587 100.024 80.818C106.401 77.2224 112.999 73.9145 119.697 70.8421C122.039 69.7695 124.425 68.7228 126.862 67.7729C129.271 66.8212 131.73 65.9983 134.227 65.3077C134.863 65.1357 136.015 64.7394 137.098 64.5761C137.753 64.4767 138.376 64.4464 138.791 64.6732C138.911 64.7373 138.817 64.8404 138.741 64.9586C138.566 65.2159 138.359 65.4494 138.124 65.6533C137.482 66.2459 136.682 66.7827 136.512 66.9124C135.656 67.555 134.762 68.1618 133.862 68.7506C131.74 70.1275 129.537 71.4035 127.434 72.7951C127.258 72.9113 125.105 74.2274 124.224 75.1554C124.044 75.3324 123.901 75.5427 123.802 75.7747C123.67 76.1415 123.764 76.4281 124.098 76.6164C124.74 76.9698 125.873 76.9736 127.176 76.7543C129.543 76.3543 132.508 75.2829 133.61 74.9983C138.773 73.6725 143.935 72.3389 149.16 71.2096C152.616 70.4612 156.104 69.8034 159.629 69.2937C172.038 67.5087 185.384 67.068 198.56 68.1454C211.787 69.2276 224.844 71.8402 236.591 76.1398C236.918 76.258 237.279 76.0888 237.397 75.7619C237.515 75.435 237.346 75.0742 237.019 74.956C225.158 70.6854 211.982 68.1247 198.642 67.0962C185.39 66.0755 171.968 66.5655 159.497 68.411C155.959 68.9337 152.452 69.6072 148.971 70.3676C143.746 71.5111 138.571 72.8527 133.402 74.1895C132.313 74.4716 129.38 75.5366 127.038 75.9316C126.056 76.0962 125.193 76.1641 124.652 75.9513L124.652 75.9513ZM262.937 231.675C266.689 231.079 270.529 229.835 274.086 228.05C277.643 226.262 280.917 223.932 283.498 221.11C285.94 218.495 287.709 215.205 289.988 212.405C290.939 211.234 291.984 210.154 293.212 209.25C294.439 208.343 295.805 207.739 297.241 207.328C298.689 206.91 300.212 206.694 301.729 206.568C302.074 206.533 302.326 206.227 302.293 205.882C302.26 205.537 301.955 205.283 301.61 205.315C300.017 205.486 298.424 205.756 296.907 206.231C295.365 206.714 293.898 207.406 292.582 208.421C291.31 209.4 290.234 210.562 289.245 211.812C287.023 214.631 285.292 217.916 282.887 220.543C280.344 223.254 277.139 225.496 273.652 227.17C270.21 228.814 266.533 229.913 262.754 230.429C262.527 230.457 262.333 230.605 262.247 230.817C262.161 231.029 262.197 231.27 262.34 231.449C262.483 231.627 262.712 231.713 262.937 231.675L262.937 231.675Z" id="Shape" fill="#E3DBF9" fill-rule="evenodd" stroke="none" />
      <path d="M159.664 176.453C165.982 192.23 187.667 217.297 207.149 217.294C235.291 217.295 265.416 143.598 265.416 143.598C276.791 135.852 269.828 125.098 264.688 116.081L256.858 135.409C256.858 135.409 222.983 182.787 208.382 180.653C193.78 178.523 177.367 123.321 169.248 122.62C161.129 121.919 153.348 160.672 159.664 176.453L159.664 176.453Z" id="Shape" fill="#FB9C9A" fill-rule="evenodd" stroke="none" />
      <g id="Mask-Group" transform="translate(157.3541 116.08081)">
        <path d="M2.30995 60.3725C8.62757 76.1495 30.3127 101.216 49.7951 101.213C77.9371 101.214 108.062 27.5171 108.062 27.5171C119.437 19.7717 112.474 9.01711 107.334 3.44618e-06L99.5041 19.3277C99.5041 19.3277 65.6285 66.7062 51.0278 64.5721C36.4256 62.442 20.0134 7.23988 11.8941 6.53923C3.77476 5.83858 -4.00602 44.5916 2.30996 60.3725L2.30995 60.3725Z" id="Shape" fill="none" fill-rule="evenodd" stroke="none" />
        <g clip-path="url(#mask_2)">
          <g id="Group" transform="translate(-23.477194 -35.79941)">
            <path d="M108.061 57.0189C93.1725 37.8085 84.2707 10.4214 59.2464 1.87422C41.6883 -4.12343 25.9057 4.95076 15.9589 19.4636C0.472139 42.0635 -4.53293 74.4918 4.45087 100.462C17.3502 137.751 61.0279 150.348 95.3823 135.856C106.028 131.364 116.61 124.636 122.509 114.386C126.916 106.729 131.077 91.5876 123.328 84.2654C120.772 81.8492 116.466 82.8672 114.275 80.0815C112.607 77.9656 113.425 75.149 112.455 72.7863C110.875 68.9111 104.888 68.0477 101.231 68.5132L108.061 57.0189Z" id="Shape" fill="url(#gradient_4)" fill-rule="evenodd" stroke="none" />
          </g>
        </g>
      </g>
      <path d="M157.145 196.545C166.156 185.586 179.894 138.478 172.869 125.258C165.844 112.039 128.594 97.9439 114.993 117.225C103.04 134.167 111.774 177.789 118.799 191.008C124.856 202.413 148.942 206.52 157.145 196.545L157.145 196.545Z" id="Shape" fill="url(#gradient_5)" fill-rule="evenodd" stroke="none" />
      <path d="M154.275 137.645C153.288 135.032 150.37 133.713 147.757 134.699L76.7277 161.507C75.4735 161.981 74.4589 162.934 73.9072 164.156C73.3554 165.378 73.3117 166.769 73.7857 168.023L115.706 279.093C116.691 281.705 119.607 283.024 122.22 282.04L193.249 255.232C195.861 254.245 197.18 251.328 196.195 248.714L154.275 137.645Z" id="Shape" fill="#FFFFFF" fill-rule="evenodd" stroke="none" />
      <path d="M100.667 172.488C100.409 171.804 99.6451 171.459 98.9608 171.716L86.7399 176.329C86.0559 176.588 85.7108 177.351 85.9687 178.036L85.9692 178.036C86.2276 178.72 86.9913 179.066 87.6755 178.808L99.8965 174.195C100.58 173.937 100.926 173.173 100.668 172.489L100.667 172.488ZM98.7469 167.4C98.4885 166.716 97.7248 166.371 97.0405 166.628L84.8195 171.241C84.1355 171.499 83.7904 172.263 84.0484 172.948L84.0484 172.948C84.3069 173.632 85.0706 173.978 85.7547 173.72L97.9761 169.108C98.66 168.849 99.0052 168.085 98.7473 167.401L98.7469 167.4Z" id="Shape" fill="#E3E3FE" fill-rule="evenodd" stroke="none" />
      <path d="M154.063 137.083C153.646 135.978 152.806 135.083 151.729 134.596C150.652 134.11 149.426 134.071 148.321 134.488L76.1699 161.72C75.0641 162.137 74.1694 162.976 73.6825 164.053C73.1956 165.13 73.1566 166.356 73.574 167.462L73.574 167.463C73.9912 168.569 74.8307 169.463 75.9077 169.95C76.9847 170.437 78.211 170.475 79.3166 170.058L151.467 142.827C152.573 142.409 153.468 141.57 153.955 140.493C154.442 139.416 154.481 138.19 154.063 137.084L154.063 137.083Z" id="Shape" fill="#FFFFFF" fill-rule="evenodd" stroke="none" />
      <path d="M135.045 201.344C134.95 201.354 134.861 201.299 134.827 201.209L126.06 177.981C125.259 175.862 122.892 174.792 120.772 175.591L120.768 175.593C119.75 175.977 118.927 176.749 118.479 177.741C118.031 178.733 117.996 179.862 118.381 180.879L127.219 204.296L127.219 204.297L127.216 204.298L126.831 204.444C126.611 204.528 126.362 204.433 126.255 204.222C125.164 202.1 119.62 191.311 116.801 185.829C116.364 184.978 115.607 184.335 114.696 184.042C113.786 183.75 112.796 183.831 111.945 184.268C111.942 184.269 111.942 184.269 111.942 184.269C111.09 184.707 110.448 185.464 110.155 186.375C109.862 187.286 109.943 188.277 110.381 189.128C112.245 192.754 115.331 198.759 117.73 203.427C120.034 207.913 122.082 212.527 123.862 217.245C123.862 217.245 120.52 213.841 117.904 211.175C116.207 209.448 113.432 209.423 111.704 211.119L111.704 211.12C110.876 211.933 110.407 213.043 110.401 214.204C110.396 215.365 110.854 216.48 111.675 217.301C114.605 220.238 119.138 224.773 123.105 228.747C128.095 233.743 135.548 235.351 142.154 232.858C151.526 229.321 156.256 218.857 152.719 209.487L151.199 205.46C151.199 205.46 149.679 189.76 148.977 182.51C148.784 180.526 147.02 179.074 145.036 179.267L145.036 179.266C143.052 179.458 141.599 181.222 141.791 183.206C142.317 188.62 143.249 198.248 143.249 198.248L143.177 198.275C143.025 198.292 142.882 198.195 142.842 198.047C142.299 195.966 139.262 184.337 137.622 178.055C137.041 175.832 134.768 174.501 132.545 175.08L132.542 175.081C131.474 175.36 130.56 176.051 130.003 177.004C129.445 177.956 129.289 179.091 129.568 180.159C131.426 187.274 135.094 201.326 135.094 201.326L135.045 201.344Z" id="Shape" fill="url(#gradient_6)" fill-rule="evenodd" stroke="none" />
      <path d="M181.116 230.09L184.271 238.447C185.251 241.045 183.94 243.946 181.342 244.928L172.52 248.257L171.698 246.079L180.52 242.749C181.191 242.497 181.734 241.988 182.03 241.335C182.326 240.682 182.35 239.938 182.097 239.268L178.943 230.91L181.116 230.09ZM116.628 254.43L119.782 262.787C120.034 263.457 120.543 264 121.195 264.295C121.848 264.59 122.591 264.614 123.261 264.36L132.083 261.031L132.905 263.209L124.083 266.539C121.485 267.519 118.584 266.207 117.603 263.609L114.449 255.252L116.628 254.43ZM101.461 179.895L102.283 182.074L93.461 185.403C92.7907 185.656 92.2483 186.164 91.9535 186.817C91.6586 187.47 91.6354 188.213 91.889 188.883L95.0432 197.24L92.8645 198.063L89.7103 189.705C88.7301 187.107 90.0411 184.206 92.6389 183.225L101.461 179.895ZM141.076 164.944L149.898 161.614C152.496 160.634 155.397 161.946 156.378 164.544L159.532 172.901L157.358 173.721L154.204 165.364C153.951 164.693 153.441 164.151 152.787 163.856C152.134 163.562 151.39 163.539 150.72 163.793L141.898 167.122L141.076 164.944Z" id="Shape" fill="#E3E3FE" fill-rule="evenodd" stroke="none" />
      <path d="M122.659 245.696C123.082 245.536 123.471 245.563 123.825 245.775C124.246 246.026 124.614 246.567 124.927 247.398C125.24 248.227 125.317 248.879 125.168 249.35C125.047 249.737 124.771 250.012 124.348 250.172C123.95 250.335 123.497 250.297 123.132 250.069C122.742 249.841 122.394 249.305 122.077 248.463C121.765 247.638 121.684 246.99 121.833 246.52C121.96 246.13 122.235 245.856 122.659 245.696L122.659 245.696ZM122.922 246.393C122.821 246.43 122.737 246.501 122.683 246.594C122.625 246.725 122.607 246.87 122.63 247.011C122.656 247.25 122.764 247.627 122.958 248.142C123.152 248.656 123.311 248.999 123.434 249.172C123.563 249.344 123.673 249.449 123.778 249.482C123.878 249.516 123.987 249.514 124.085 249.475C124.184 249.438 124.266 249.368 124.318 249.276C124.381 249.146 124.399 248.999 124.37 248.858C124.35 248.62 124.238 248.246 124.044 247.731C123.85 247.217 123.691 246.874 123.568 246.701C123.444 246.528 123.329 246.424 123.228 246.388C123.129 246.353 123.02 246.355 122.922 246.393L122.922 246.393ZM126.062 244.412C126.485 244.252 126.874 244.278 127.228 244.491C127.649 244.742 128.017 245.283 128.331 246.114C128.644 246.943 128.726 247.593 128.577 248.063C128.45 248.453 128.175 248.728 127.751 248.887C127.353 249.05 126.9 249.012 126.535 248.785C126.151 248.555 125.798 248.02 125.48 247.179C125.169 246.354 125.087 245.706 125.241 245.234C125.363 244.846 125.638 244.571 126.062 244.412L126.062 244.412ZM126.325 245.108C126.225 245.144 126.142 245.215 126.091 245.308C126.029 245.438 126.009 245.585 126.034 245.727C126.06 245.965 126.172 246.341 126.366 246.855C126.561 247.369 126.719 247.713 126.843 247.886C126.967 248.059 127.081 248.162 127.182 248.197C127.388 248.265 127.614 248.179 127.722 247.991C127.784 247.861 127.804 247.714 127.779 247.572C127.754 247.335 127.647 246.959 127.453 246.445C127.259 245.931 127.1 245.587 126.977 245.414C126.848 245.243 126.738 245.137 126.632 245.104C126.532 245.068 126.423 245.069 126.325 245.108L126.325 245.108ZM131.856 247.253L131.019 247.568L129.824 244.402C129.622 244.809 129.333 245.167 128.978 245.449L128.69 244.687C128.914 244.495 129.104 244.265 129.25 244.009C129.424 243.741 129.517 243.428 129.516 243.108L130.195 242.852L131.856 247.253ZM134.927 246.093L134.086 246.411L132.891 243.245C132.689 243.652 132.4 244.009 132.044 244.292L131.756 243.529C131.981 243.337 132.17 243.108 132.317 242.852C132.491 242.583 132.583 242.27 132.583 241.95L133.266 241.692L134.927 246.093ZM137.994 244.936L137.152 245.254L135.957 242.088C135.755 242.495 135.466 242.852 135.111 243.134L134.823 242.372C135.048 242.179 135.239 241.949 135.388 241.692C135.559 241.423 135.65 241.111 135.649 240.793L136.333 240.535L137.994 244.936ZM139.007 239.526C139.43 239.366 139.819 239.393 140.173 239.605C140.594 239.856 140.962 240.397 141.275 241.228C141.588 242.057 141.67 242.707 141.521 243.178C141.395 243.567 141.119 243.842 140.696 244.002C140.297 244.164 139.845 244.126 139.48 243.899C139.096 243.669 138.742 243.135 138.425 242.294C138.113 241.468 138.032 240.821 138.186 240.348C138.308 239.961 138.583 239.686 139.007 239.526L139.007 239.526ZM139.269 240.223C139.17 240.259 139.088 240.33 139.036 240.422C138.973 240.552 138.955 240.698 138.984 240.839C139.004 241.08 139.117 241.455 139.311 241.97C139.505 242.484 139.664 242.827 139.787 243C139.911 243.174 140.026 243.277 140.126 243.312C140.226 243.346 140.335 243.343 140.433 243.305C140.533 243.268 140.618 243.197 140.672 243.104C140.729 242.973 140.747 242.828 140.724 242.687C140.698 242.45 140.592 242.074 140.398 241.56C140.203 241.045 140.045 240.702 139.921 240.529C139.797 240.356 139.683 240.252 139.576 240.218C139.477 240.182 139.368 240.184 139.269 240.222L139.269 240.223ZM142.415 238.24C142.838 238.08 143.227 238.106 143.581 238.319C144.003 238.57 144.365 239.113 144.679 239.944C144.992 240.773 145.074 241.423 144.925 241.893C144.803 242.281 144.528 242.556 144.104 242.715C143.706 242.879 143.253 242.84 142.888 242.612C142.499 242.384 142.151 241.848 141.833 241.007C141.522 240.182 141.44 239.534 141.589 239.063C141.716 238.674 141.986 238.401 142.415 238.24L142.415 238.24ZM142.678 238.936C142.577 238.973 142.493 239.045 142.439 239.138C142.381 239.269 142.363 239.414 142.387 239.555C142.413 239.793 142.52 240.171 142.714 240.685C142.908 241.199 143.067 241.543 143.191 241.716C143.314 241.889 143.429 241.992 143.535 242.025C143.634 242.06 143.743 242.057 143.841 242.018C143.94 241.982 144.023 241.911 144.075 241.819C144.137 241.69 144.155 241.543 144.127 241.402C144.107 241.163 143.995 240.789 143.801 240.275C143.606 239.761 143.448 239.417 143.324 239.244C143.2 239.071 143.086 238.967 142.985 238.932C142.885 238.897 142.776 238.899 142.678 238.936L142.678 238.936ZM145.818 236.955C146.242 236.795 146.631 236.822 146.985 237.034C147.406 237.285 147.773 237.826 148.087 238.657C148.4 239.486 148.482 240.136 148.333 240.607C148.206 240.996 147.931 241.271 147.508 241.431C147.109 241.595 146.656 241.556 146.291 241.328C145.907 241.098 145.554 240.564 145.236 239.723C144.925 238.898 144.844 238.25 144.998 237.777C145.12 237.39 145.395 237.115 145.818 236.955L145.818 236.955ZM146.081 237.652C145.982 237.688 145.899 237.759 145.848 237.851C145.786 237.982 145.765 238.128 145.79 238.27C145.816 238.509 145.923 238.886 146.118 239.401C146.312 239.915 146.47 240.258 146.599 240.43C146.723 240.603 146.837 240.706 146.938 240.741C147.144 240.81 147.37 240.724 147.478 240.536C147.54 240.405 147.56 240.258 147.536 240.116C147.51 239.879 147.404 239.504 147.209 238.989C147.015 238.475 146.857 238.132 146.728 237.96C146.604 237.787 146.494 237.682 146.388 237.648C146.289 237.612 146.18 237.613 146.081 237.652L146.081 237.652ZM151.612 239.796L150.775 240.112L149.58 236.946C149.379 237.353 149.09 237.71 148.734 237.993L148.446 237.23C148.671 237.038 148.86 236.809 149.007 236.552C149.179 236.283 149.271 235.971 149.273 235.651L149.951 235.395L151.612 239.796ZM154.679 238.639L153.842 238.955L152.647 235.789C152.445 236.195 152.156 236.553 151.8 236.835L151.513 236.073C151.737 235.881 151.927 235.652 152.073 235.395C152.247 235.127 152.34 234.814 152.339 234.494L153.018 234.238L154.679 238.639ZM157.75 237.479L156.908 237.797L155.713 234.631C155.511 235.038 155.222 235.396 154.867 235.678L154.579 234.916C154.803 234.724 154.993 234.494 155.139 234.238C155.313 233.969 155.406 233.656 155.405 233.336L156.089 233.078L157.75 237.479ZM160.817 236.322L159.975 236.64L158.78 233.474C158.578 233.881 158.289 234.238 157.934 234.521L157.646 233.758C157.872 233.566 158.063 233.336 158.211 233.079C158.382 232.81 158.472 232.498 158.472 232.179L159.155 231.921L160.817 236.322ZM161.829 230.912C162.258 230.75 162.642 230.779 162.996 230.991C163.417 231.242 163.784 231.783 164.098 232.614C164.411 233.443 164.493 234.093 164.344 234.564C164.217 234.953 163.947 235.226 163.519 235.388C163.12 235.551 162.668 235.512 162.302 235.285C161.918 235.055 161.565 234.521 161.248 233.68C160.936 232.855 160.855 232.207 161.009 231.734C161.131 231.347 161.406 231.072 161.829 230.912L161.829 230.912ZM162.092 231.609C161.993 231.646 161.911 231.716 161.859 231.808C161.796 231.938 161.778 232.084 161.806 232.226C161.827 232.466 161.94 232.841 162.134 233.356C162.328 233.87 162.487 234.214 162.61 234.387C162.734 234.56 162.849 234.663 162.949 234.698C163.049 234.731 163.157 234.729 163.256 234.691C163.356 234.654 163.441 234.583 163.495 234.49C163.552 234.359 163.57 234.214 163.547 234.072C163.521 233.836 163.415 233.46 163.22 232.946C163.026 232.431 162.868 232.088 162.744 231.915C162.62 231.742 162.505 231.638 162.399 231.604C162.3 231.568 162.191 231.57 162.092 231.609L162.092 231.609ZM165.238 229.626C165.661 229.466 166.05 229.492 166.404 229.705C166.825 229.956 167.193 230.497 167.507 231.328C167.819 232.157 167.896 232.809 167.748 233.28C167.626 233.667 167.351 233.942 166.927 234.101C166.529 234.265 166.076 234.227 165.711 233.998C165.321 233.77 164.974 233.234 164.656 232.393C164.345 231.568 164.263 230.92 164.412 230.449C164.539 230.06 164.814 229.786 165.238 229.626L165.238 229.626ZM165.501 230.322C165.4 230.36 165.316 230.431 165.262 230.524C165.204 230.655 165.186 230.8 165.21 230.941C165.235 231.18 165.343 231.557 165.537 232.071C165.731 232.586 165.89 232.929 166.014 233.102C166.137 233.275 166.252 233.378 166.358 233.411C166.457 233.446 166.566 233.443 166.664 233.405C166.763 233.368 166.846 233.297 166.898 233.206C166.96 233.076 166.978 232.929 166.949 232.788C166.929 232.549 166.817 232.176 166.623 231.661C166.429 231.147 166.27 230.803 166.147 230.63C166.023 230.457 165.908 230.353 165.807 230.318C165.708 230.283 165.599 230.285 165.5 230.322L165.501 230.322ZM168.641 228.341C169.065 228.181 169.453 228.208 169.808 228.42C170.229 228.671 170.596 229.212 170.91 230.043C171.223 230.873 171.305 231.522 171.156 231.993C171.029 232.383 170.754 232.657 170.33 232.817C169.932 232.981 169.479 232.943 169.114 232.714C168.73 232.484 168.377 231.95 168.059 231.109C167.748 230.284 167.667 229.636 167.821 229.163C167.942 228.776 168.218 228.501 168.641 228.341L168.641 228.341ZM168.904 229.038C168.804 229.074 168.721 229.145 168.67 229.237C168.608 229.368 168.588 229.514 168.613 229.657C168.639 229.895 168.746 230.273 168.94 230.787C169.135 231.301 169.298 231.643 169.422 231.816C169.546 231.989 169.66 232.092 169.761 232.127C169.861 232.162 169.969 232.159 170.067 232.12C170.167 232.085 170.25 232.014 170.301 231.922C170.363 231.791 170.383 231.644 170.358 231.502C170.333 231.265 170.226 230.889 170.032 230.375C169.838 229.861 169.679 229.517 169.55 229.346C169.427 229.173 169.312 229.069 169.211 229.034C169.111 228.998 169.002 228.999 168.904 229.038L168.904 229.038ZM127.73 256.924L126.888 257.242L125.693 254.076C125.491 254.483 125.202 254.84 124.847 255.123L124.559 254.361C124.783 254.168 124.973 253.939 125.119 253.683C125.293 253.414 125.386 253.101 125.385 252.781L126.069 252.523L127.73 256.924ZM130.797 255.767L129.955 256.085L128.76 252.919C128.559 253.324 128.272 253.681 127.918 253.964L127.631 253.202C127.854 253.009 128.044 252.779 128.191 252.524C128.364 252.256 128.454 251.943 128.452 251.624L129.135 251.366L130.797 255.767ZM133.863 254.61L133.021 254.927L131.826 251.761C131.625 252.167 131.338 252.524 130.985 252.807L130.697 252.044C130.921 251.851 131.11 251.622 131.257 251.366C131.43 251.097 131.522 250.785 131.523 250.465L132.202 250.209L133.863 254.61ZM134.881 249.198C135.304 249.038 135.693 249.064 136.047 249.277C136.463 249.53 136.831 250.071 137.145 250.902C137.457 251.731 137.539 252.381 137.391 252.852C137.269 253.239 136.994 253.514 136.57 253.673C136.17 253.836 135.716 253.799 135.349 253.572C134.965 253.342 134.617 252.806 134.299 251.965C133.988 251.14 133.906 250.492 134.055 250.021C134.177 249.634 134.452 249.36 134.881 249.198L134.881 249.198ZM135.144 249.894C135.043 249.932 134.959 250.003 134.905 250.096C134.843 250.225 134.824 250.372 134.853 250.513C134.878 250.752 134.986 251.129 135.18 251.643C135.374 252.158 135.533 252.501 135.657 252.674C135.78 252.847 135.895 252.95 135.996 252.986C136.097 253.019 136.207 253.016 136.307 252.977C136.405 252.939 136.488 252.869 136.54 252.778C136.598 252.647 136.616 252.502 136.592 252.36C136.567 252.124 136.46 251.748 136.266 251.233C136.072 250.719 135.913 250.376 135.79 250.203C135.666 250.03 135.551 249.926 135.45 249.89C135.351 249.856 135.242 249.858 135.144 249.894L135.144 249.894ZM138.284 247.913C138.708 247.754 139.096 247.78 139.451 247.992C139.872 248.243 140.239 248.784 140.553 249.615C140.866 250.445 140.948 251.095 140.794 251.567C140.672 251.955 140.397 252.229 139.973 252.389C139.575 252.553 139.122 252.514 138.757 252.286C138.373 252.056 138.02 251.522 137.702 250.681C137.391 249.856 137.31 249.208 137.458 248.737C137.585 248.348 137.861 248.073 138.284 247.913L138.284 247.913ZM138.547 248.61C138.447 248.646 138.365 248.717 138.313 248.809C138.251 248.94 138.231 249.086 138.256 249.229C138.282 249.467 138.389 249.845 138.583 250.359C138.778 250.873 138.936 251.217 139.06 251.39C139.189 251.561 139.298 251.666 139.404 251.699C139.504 251.733 139.612 251.731 139.71 251.692C139.81 251.656 139.893 251.586 139.944 251.493C140.006 251.363 140.024 251.217 139.996 251.075C139.976 250.837 139.869 250.461 139.675 249.947C139.481 249.432 139.317 249.091 139.193 248.917C139.07 248.744 138.955 248.641 138.854 248.605C138.754 248.57 138.646 248.572 138.547 248.61L138.547 248.61ZM141.687 246.629C142.111 246.469 142.499 246.495 142.854 246.708C143.275 246.959 143.642 247.5 143.956 248.331C144.269 249.16 144.351 249.81 144.202 250.281C144.075 250.67 143.8 250.945 143.376 251.105C142.978 251.267 142.525 251.229 142.16 251.002C141.776 250.772 141.423 250.238 141.105 249.396C140.794 248.571 140.713 247.923 140.866 247.451C140.989 247.063 141.264 246.789 141.687 246.629L141.687 246.629ZM141.95 247.325C141.851 247.362 141.768 247.433 141.716 247.525C141.654 247.654 141.636 247.801 141.664 247.942C141.685 248.183 141.797 248.558 141.991 249.072C142.185 249.587 142.344 249.93 142.468 250.103C142.592 250.276 142.706 250.379 142.807 250.415C142.907 250.448 143.015 250.446 143.113 250.408C143.214 250.371 143.298 250.3 143.352 250.207C143.41 250.076 143.428 249.931 143.404 249.789C143.379 249.553 143.272 249.177 143.078 248.663C142.884 248.148 142.725 247.805 142.601 247.632C142.478 247.459 142.363 247.355 142.257 247.321C142.157 247.285 142.049 247.287 141.95 247.325L141.95 247.325ZM147.486 249.468L146.644 249.786L145.45 246.62C145.248 247.027 144.959 247.384 144.603 247.666L144.315 246.904C144.54 246.712 144.729 246.483 144.876 246.226C145.05 245.958 145.142 245.645 145.142 245.325L145.825 245.067L147.486 249.468ZM150.553 248.311L149.711 248.628L148.516 245.462C148.315 245.869 148.026 246.227 147.67 246.509L147.382 245.747C147.607 245.555 147.796 245.325 147.942 245.069C148.117 244.801 148.209 244.487 148.209 244.168L148.892 243.91L150.553 248.311ZM153.619 247.153L152.777 247.471L151.583 244.305C151.382 244.71 151.094 245.067 150.741 245.35L150.453 244.588C150.677 244.395 150.866 244.166 151.014 243.91C151.187 243.642 151.277 243.329 151.275 243.01L151.958 242.752L153.619 247.153ZM156.686 245.996L155.844 246.314L154.649 243.148C154.448 243.553 154.161 243.91 153.808 244.193L153.52 243.43C153.744 243.237 153.933 243.008 154.08 242.753C154.253 242.483 154.345 242.171 154.347 241.851L155.025 241.595L156.686 245.996ZM157.704 240.584C158.127 240.424 158.516 240.451 158.87 240.663C159.291 240.914 159.654 241.457 159.967 242.288C160.28 243.117 160.362 243.767 160.214 244.238C160.092 244.625 159.816 244.9 159.393 245.059C158.993 245.223 158.539 245.185 158.172 244.958C157.787 244.729 157.439 244.193 157.122 243.351C156.81 242.526 156.729 241.878 156.878 241.408C157.005 241.018 157.275 240.746 157.704 240.584L157.704 240.584ZM157.967 241.281C157.866 241.318 157.782 241.389 157.728 241.482C157.67 241.613 157.652 241.758 157.675 241.899C157.701 242.138 157.809 242.515 158.003 243.029C158.197 243.544 158.356 243.887 158.479 244.06C158.603 244.234 158.718 244.336 158.823 244.369C158.923 244.404 159.032 244.402 159.13 244.363C159.228 244.325 159.311 244.255 159.363 244.164C159.426 244.034 159.444 243.887 159.415 243.746C159.395 243.508 159.283 243.134 159.089 242.619C158.895 242.105 158.736 241.762 158.613 241.589C158.489 241.415 158.374 241.312 158.273 241.276C158.173 241.242 158.065 241.244 157.966 241.281L157.967 241.281ZM161.107 239.3C161.53 239.14 161.919 239.166 162.273 239.379C162.694 239.63 163.062 240.17 163.376 241.002C163.689 241.831 163.771 242.481 163.617 242.953C163.495 243.341 163.22 243.615 162.796 243.775C162.398 243.939 161.945 243.9 161.58 243.672C161.196 243.442 160.843 242.908 160.525 242.067C160.214 241.242 160.132 240.594 160.281 240.123C160.408 239.734 160.683 239.459 161.107 239.3L161.107 239.3ZM161.37 239.996C161.27 240.032 161.187 240.103 161.136 240.196C161.074 240.326 161.054 240.472 161.079 240.615C161.105 240.853 161.212 241.231 161.406 241.745C161.6 242.259 161.759 242.603 161.888 242.774C162.012 242.947 162.121 243.052 162.227 243.086C162.326 243.12 162.435 243.118 162.533 243.079C162.633 243.043 162.716 242.973 162.767 242.88C162.829 242.749 162.849 242.603 162.824 242.46C162.799 242.224 162.692 241.848 162.498 241.334C162.304 240.819 162.145 240.476 162.016 240.304C161.893 240.131 161.778 240.028 161.677 239.992C161.577 239.957 161.468 239.958 161.37 239.996L161.37 239.996ZM166.901 242.14L166.064 242.456L164.869 239.29C164.666 239.697 164.377 240.054 164.023 240.337L163.735 239.575C163.959 239.383 164.149 239.153 164.295 238.897C164.467 238.628 164.56 238.315 164.561 237.996L165.24 237.74L166.901 242.14ZM169.967 240.983L169.131 241.299L167.936 238.133C167.734 238.54 167.445 238.897 167.089 239.18L166.801 238.417C167.026 238.225 167.215 237.996 167.362 237.74C167.536 237.471 167.628 237.158 167.628 236.838L168.306 236.582L169.967 240.983ZM170.985 235.571C171.409 235.411 171.797 235.438 172.152 235.65C172.573 235.901 172.94 236.442 173.254 237.273C173.567 238.103 173.649 238.753 173.495 239.225C173.373 239.613 173.098 239.887 172.674 240.047C172.276 240.211 171.823 240.172 171.458 239.944C171.074 239.714 170.721 239.18 170.403 238.338C170.092 237.513 170.011 236.866 170.159 236.395C170.286 236.006 170.562 235.731 170.985 235.571L170.985 235.571ZM171.248 236.268C171.149 236.304 171.066 236.375 171.014 236.467C170.952 236.598 170.932 236.744 170.957 236.886C170.983 237.125 171.09 237.502 171.285 238.017C171.479 238.531 171.637 238.874 171.761 239.048C171.89 239.219 171.999 239.324 172.105 239.357C172.205 239.391 172.313 239.389 172.411 239.35C172.511 239.314 172.594 239.244 172.645 239.151C172.707 239.02 172.727 238.874 172.702 238.731C172.677 238.495 172.565 238.121 172.371 237.607C172.177 237.093 172.018 236.749 171.895 236.576C171.771 236.403 171.656 236.299 171.555 236.263C171.455 236.229 171.347 236.23 171.248 236.268L171.248 236.268Z" id="Shape" fill="#20238C" fill-rule="evenodd" stroke="none" />
      <path d="M143.474 226.791C142.475 227.413 141.353 227.811 140.185 227.956C139.948 227.983 139.744 228.135 139.65 228.354C139.557 228.573 139.589 228.825 139.733 229.014C139.878 229.204 140.113 229.301 140.349 229.268C141.707 229.099 143.011 228.637 144.172 227.913C144.479 227.719 144.571 227.313 144.38 227.005C144.188 226.697 143.783 226.601 143.474 226.791L143.474 226.791ZM147.394 221.502C147.037 222.643 146.487 223.715 145.77 224.673C145.55 224.965 145.608 225.38 145.901 225.6C146.193 225.82 146.608 225.762 146.828 225.47C147.632 224.392 148.249 223.187 148.654 221.904C148.761 221.558 148.569 221.19 148.223 221.08C147.878 220.969 147.508 221.157 147.394 221.502L147.394 221.502ZM137.058 227.767C135.896 227.483 134.789 227.005 133.786 226.352C133.478 226.155 133.069 226.245 132.871 226.553C132.674 226.861 132.764 227.271 133.072 227.468C134.201 228.196 135.442 228.731 136.746 229.054C137.101 229.138 137.457 228.92 137.543 228.566C137.629 228.212 137.412 227.855 137.058 227.767L137.058 227.767ZM147.719 214.723C147.951 215.914 148.035 217.129 147.969 218.341C147.949 218.706 148.228 219.019 148.593 219.04C148.958 219.061 149.271 218.782 149.291 218.417C149.363 217.095 149.269 215.769 149.013 214.471C148.97 214.237 148.805 214.044 148.581 213.966C148.357 213.888 148.108 213.937 147.929 214.093C147.751 214.25 147.67 214.491 147.719 214.723L147.719 214.723ZM131.317 224.293C130.485 223.408 129.766 222.423 129.178 221.361C129.094 221.207 128.952 221.094 128.784 221.045C128.616 220.997 128.435 221.017 128.282 221.102C127.963 221.28 127.848 221.682 128.023 222.002C128.663 223.161 129.445 224.235 130.351 225.199C130.601 225.465 131.019 225.478 131.285 225.229C131.548 224.978 131.562 224.562 131.317 224.293L131.317 224.293ZM144.964 208.465C145.688 209.442 146.293 210.502 146.768 211.621C146.86 211.838 147.061 211.99 147.295 212.019C147.529 212.048 147.761 211.95 147.903 211.761C148.045 211.573 148.076 211.323 147.984 211.106C147.468 209.89 146.812 208.739 146.029 207.675C145.808 207.389 145.399 207.332 145.109 207.547C144.819 207.763 144.755 208.171 144.965 208.465L144.964 208.465ZM127.907 218.375C127.547 217.214 127.328 216.014 127.253 214.801C127.239 214.565 127.1 214.355 126.889 214.249C126.678 214.143 126.427 214.158 126.23 214.288C126.033 214.418 125.92 214.643 125.934 214.879C126.014 216.198 126.252 217.503 126.644 218.765C126.754 219.114 127.125 219.308 127.475 219.2C127.642 219.148 127.781 219.032 127.862 218.877C127.943 218.722 127.959 218.541 127.906 218.375L127.907 218.375ZM139.7 204.233C140.809 204.699 141.839 205.333 142.756 206.112C143.035 206.347 143.452 206.31 143.687 206.031C143.921 205.752 143.885 205.335 143.605 205.1C142.585 204.237 141.441 203.533 140.21 203.012C139.873 202.872 139.486 203.031 139.345 203.368C139.204 203.705 139.363 204.092 139.7 204.233L139.7 204.233ZM127.44 211.58C127.643 210.397 128.028 209.252 128.582 208.188C128.695 207.979 128.687 207.726 128.561 207.524C128.435 207.323 128.211 207.204 127.974 207.214C127.737 207.224 127.523 207.359 127.414 207.57C126.797 208.757 126.366 210.031 126.135 211.348C126.072 211.708 126.313 212.051 126.672 212.115C127.032 212.179 127.376 211.939 127.441 211.58L127.44 211.58ZM133.083 204.037L133.179 204C134.282 203.586 135.46 203.414 136.635 203.495C136.997 203.514 137.306 203.239 137.33 202.878C137.353 202.517 137.082 202.204 136.722 202.175C135.402 202.085 134.078 202.27 132.833 202.719L132.712 202.763C131.553 203.201 130.491 203.861 129.586 204.707C129.319 204.956 129.305 205.374 129.554 205.642C129.803 205.909 130.221 205.923 130.488 205.674C131.242 204.97 132.123 204.414 133.083 204.036L133.083 204.037ZM140.605 222.031C140.432 222.119 140.254 222.198 140.073 222.267C138.114 223.006 135.959 222.486 134.295 221.121C134.014 220.89 133.598 220.931 133.367 221.213C133.136 221.495 133.177 221.91 133.459 222.141C135.492 223.814 138.139 224.41 140.539 223.504C140.766 223.419 140.988 223.32 141.204 223.21C141.417 223.104 141.557 222.892 141.57 222.655C141.583 222.418 141.468 222.192 141.269 222.063C141.069 221.934 140.816 221.922 140.605 222.032L140.605 222.031ZM143.114 213.349C143.153 213.442 143.19 213.537 143.225 213.632C144.074 215.879 143.845 218.238 142.777 219.985C142.654 220.187 142.648 220.439 142.762 220.647C142.875 220.854 143.09 220.985 143.327 220.991C143.563 220.997 143.784 220.876 143.907 220.674C145.168 218.608 145.466 215.821 144.463 213.164C144.422 213.054 144.38 212.944 144.331 212.838C144.241 212.619 144.041 212.465 143.806 212.434C143.57 212.404 143.337 212.502 143.194 212.691C143.052 212.88 143.021 213.131 143.114 213.349L143.114 213.349ZM132.366 218.702C132.227 218.432 132.103 218.154 131.997 217.87C131.23 215.839 131.347 213.717 132.161 212.037C132.264 211.824 132.246 211.572 132.113 211.377C131.98 211.181 131.753 211.071 131.518 211.088C131.282 211.105 131.073 211.247 130.97 211.46C130.008 213.441 129.855 215.943 130.759 218.337C130.883 218.667 131.026 218.99 131.188 219.304C131.357 219.626 131.753 219.752 132.076 219.586C132.399 219.421 132.528 219.026 132.366 218.702L132.366 218.702ZM135.082 209.261L135.153 209.233C137.292 208.426 139.667 209.121 141.374 210.782C141.637 211.033 142.053 211.025 142.306 210.765C142.559 210.504 142.556 210.088 142.297 209.833C140.242 207.837 137.389 207.036 134.807 207.952L134.687 207.996C134.23 208.168 133.793 208.391 133.386 208.66C133.189 208.791 133.077 209.017 133.091 209.253C133.106 209.489 133.246 209.699 133.458 209.804C133.67 209.909 133.921 209.893 134.118 209.762C134.421 209.562 134.744 209.394 135.082 209.261L135.082 209.261ZM138.9 215.702C138.541 215.899 138.169 216.07 137.786 216.214C137.311 216.396 136.82 216.533 136.319 216.622C135.959 216.684 135.717 217.025 135.778 217.385C135.84 217.745 136.181 217.987 136.541 217.926C137.125 217.822 137.698 217.662 138.253 217.45C138.696 217.284 139.127 217.086 139.541 216.857C139.861 216.68 139.976 216.278 139.799 215.959C139.621 215.639 139.219 215.524 138.9 215.701L138.9 215.702ZM137.283 215.347L137.436 215.287C138.383 214.93 139.281 214.76 139.881 214.817C140.118 214.841 140.349 214.737 140.488 214.543C140.626 214.35 140.65 214.097 140.55 213.881C140.45 213.666 140.242 213.52 140.005 213.5C139.282 213.433 138.211 213.597 137.079 214.01L136.969 214.05C135.984 214.422 135.153 214.906 134.611 215.372C134.43 215.525 134.345 215.764 134.389 215.998C134.432 216.232 134.598 216.424 134.823 216.502C135.048 216.579 135.297 216.53 135.475 216.373C135.894 216.011 136.534 215.644 137.283 215.346L137.283 215.347Z" id="Shape" fill="#6562F9" fill-rule="evenodd" stroke="none" />
      <path d="M94.0667 122.748C81.0823 130.766 52.3122 155.946 56.4582 174.98C62.4513 202.478 90.856 231.484 90.856 231.484C91.9459 240.995 100.07 243.18 101.774 243.792C103.247 244.319 97.4821 230.954 98.1039 229.883C100.106 226.442 104.046 231.649 104.96 228.285C105.538 226.161 100.502 222.269 96.0234 222.765C96.0234 222.765 75.7898 184.89 81.5453 167.884C87.3051 150.878 127.793 152.151 130.569 120.732C131.311 112.335 127.988 101.8 94.0667 122.748L94.0667 122.748Z" id="Shape" fill="#FB9C9A" fill-rule="evenodd" stroke="none" />
      <g id="Mask-Group" transform="translate(56.053413 110.5152)">
        <path d="M38.0132 12.2324C25.0289 20.2509 -3.74125 45.4306 0.404782 64.4647C6.39785 91.9631 34.8026 120.969 34.8026 120.969C35.8925 130.48 44.0166 132.665 45.721 133.277C47.1933 133.804 41.4287 120.439 42.0505 119.368C44.0522 115.927 47.993 121.134 48.9064 117.769C49.485 115.646 44.4485 111.754 39.97 112.25C39.97 112.25 19.7364 74.3747 25.4919 57.369C31.2517 40.3631 71.7399 41.6358 74.5157 10.2165C75.2576 1.81983 71.9345 -8.71509 38.0132 12.2324L38.0132 12.2324Z" id="Shape" fill="none" fill-rule="evenodd" stroke="none" />
        <g clip-path="url(#mask_3)">
          <g id="Group" transform="translate(-41.136208 -12.57413)">
            <path d="M93.7696 104.285C109.176 85.4873 133.889 70.7028 136.641 44.4027C138.572 25.9494 126.207 12.588 109.842 6.12753C84.3575 -3.92983 51.6296 -1.57763 28.3162 12.9708C-5.15776 33.8606 -7.69818 79.2471 14.0902 109.505C20.8427 118.881 29.761 127.697 41.0685 131.161C49.5155 133.75 65.2034 134.43 70.6131 125.243C72.3986 122.212 70.446 118.242 72.6731 115.485C74.3638 113.387 77.2922 113.556 79.3789 112.084C82.8043 109.68 82.3108 103.651 81.0416 100.189L93.7696 104.285Z" id="Shape" fill="url(#gradient_7)" fill-rule="evenodd" stroke="none" />
          </g>
        </g>
      </g>
      <g id="Group" transform="translate(262.9607 82.90177)">
        <path d="M56.7532 16.9658C56.7532 16.9658 40.6839 12.2352 29.3381 0C16.5941 11.46 0 16.9658 0 16.9658L0 42.8087C2.11182e-05 53.0701 5.29739 62.6042 14.0103 68.0242C14.4748 68.3166 14.9435 68.6051 15.4042 68.8935C23.1433 73.708 32.932 73.7622 40.724 69.0337C50.6754 62.996 56.7527 52.201 56.7532 40.5612L56.7532 16.9658Z" id="Shape" fill="url(#gradient_8)" fill-rule="evenodd" stroke="none" />
        <path d="M49.2372 22.5563C49.2372 22.5563 37.4241 19.0612 29.0833 10.0215C19.7148 18.4884 7.51583 22.5563 7.51583 22.5563L7.51583 41.6853C7.51585 49.248 11.4103 56.2767 17.8218 60.286C18.1567 60.4932 18.4925 60.7029 18.8253 60.9131C24.5191 64.4732 31.7351 64.5134 37.4682 61.0169L37.4711 61.0169C44.7786 56.5592 49.237 48.6174 49.2372 40.0575L49.2372 22.5563Z" id="Shape" fill="#FFFFFF" fill-rule="evenodd" stroke="none" />
        <path d="M16.6668 42.9083L24.4735 53.3677C25.1252 54.2388 26.1192 54.7288 27.1527 54.69C28.2135 54.6394 29.1824 54.0725 29.7461 53.1724L44.3262 30.602C45.3596 28.9989 44.9911 26.7941 43.4969 25.681C42.0027 24.5679 39.9555 24.9675 38.9155 26.5707L26.8498 45.249L21.8011 38.4852C20.6689 36.9628 18.5955 36.7174 17.1802 37.9379C15.7584 39.1584 15.5347 41.3859 16.6668 42.9084L16.6668 42.9083Z" id="Shape" fill="url(#gradient_9)" fill-rule="evenodd" stroke="none" />
      </g>
      <path d="M260.166 125.329C260.64 122.656 262.159 119.924 263.057 119.611C269.051 117.525 272.225 123.517 266.046 125.375C263.057 126.275 260.063 133.991 260.063 133.991C260.063 133.991 259.807 127.379 260.166 125.329L260.166 125.329Z" id="Shape" fill="#FB9C9A" fill-rule="evenodd" stroke="none" />
      <path d="M149.373 76.6919C141.426 76.6919 135.633 83.9874 136.764 93.8902C137.566 100.908 146.434 108.454 153.702 109.165C159.693 109.751 162.038 103.673 162.038 93.706C162.038 83.7394 157.313 76.6919 149.373 76.6919L149.373 76.6919Z" id="Shape" fill="url(#gradient_10)" fill-rule="evenodd" stroke="none" />
      <path d="M152.408 102.475C152.559 101.782 153.145 101.168 153.623 100.677C154.045 100.246 154.486 99.8275 155.008 99.5221C155.319 99.3275 155.656 99.1795 156.009 99.0827C158.068 98.5879 159.05 100.333 160.649 101.18C161.266 101.507 161.927 101.566 162.613 101.59C164.565 104.566 161.102 107.823 158.565 108.884C157.3 109.415 153.995 113.615 149.965 108.786C149.053 107.695 144.105 108.025 145.653 102.477C146.056 101.025 145.471 99.1753 145.364 97.6807C145.206 95.4893 145.382 92.9405 143.242 91.5968C142.904 91.3868 142.546 91.2123 142.172 91.0762C141.907 90.9786 141.605 90.7696 141.353 90.8886C139.496 91.7517 142.549 95.15 137.973 96.5463C138.269 98.0629 136.814 99.1274 135.48 99.3289C133.39 99.6449 131.148 98.7377 129.763 97.1501C128.485 95.6832 126.937 93.3999 126.672 91.5056C126.351 89.1863 126.465 84.1544 128.618 81.176C130.299 78.8506 132.779 77.0437 135.738 77.225C135.706 76.6377 136.097 76.0516 136.399 75.5815C137.11 74.4771 138.009 73.5061 139.055 72.7127C140.736 71.4536 142.814 70.5162 144.923 70.3575C147.75 70.1448 150.771 71.7098 151.999 74.3136C152.534 73.7394 153.346 73.555 154.089 73.4083C155.908 73.0489 157.621 73.2761 159.239 74.211C162.745 76.2401 163.954 80.1954 162.474 83.8593C161.946 83.6888 161.329 83.685 160.781 83.6056C159.459 83.4168 163.998 86.2266 154.782 87.8481C152.383 88.2699 148.826 86.4367 147.095 88.6917C145.962 90.1629 146.749 91.9187 146.981 93.5358C147.189 94.9825 147.082 96.4613 147.353 97.8985C147.737 99.9432 149.305 102.448 151.502 102.907L152.408 102.475Z" id="Shape" fill="url(#gradient_11)" fill-rule="evenodd" stroke="none" />
    </g>
  </g>
</svg>