<?xml version="1.0" encoding="utf-8"?>
<svg width="346px" height="346px" viewBox="0 0 346 346" version="1.1" xmlns:xlink="http://www.w3.org/1999/xlink" xmlns="http://www.w3.org/2000/svg">
  <defs>
    <path d="M0 0L346 0L346 346L0 346L0 0Z" id="path_1" />
    <path d="M76.2164 79.8434C70.2652 88.7601 10.3304 93.6498 2.54005 82.6928C-9.50074 65.7734 25.1761 17.4199 25.1761 17.4199C24.7287 15.1088 24.6453 9.52197 26.466 7.34183C29.2239 4.02801 25.1212 0.880802 27.6735 0.165962C30.9536 -0.749378 33.582 2.34922 39.2962 3.89879C42.6816 4.80739 42.209 13.6939 39.0083 18.6678C37.8691 20.4324 35.6929 20.5936 35.6929 20.5936C35.6929 20.5936 22.3164 53.5088 25.1572 59.8127C28.6811 67.6102 45.457 58.6325 71.2333 54.994C83.5605 53.2517 79.4957 74.9284 76.2164 79.8434L76.2164 79.8434Z" id="path_2" />
    <path d="M7.79765 99.3505C9.32316 70.5652 -0.79474 45.5129 0.126308 29.0569C0.716412 18.6179 -3.80287 3.12423 13.3532 0.614179C28.0624 -1.53759 46.2405 2.35006 49.824 6.30795C57.0779 14.2929 54.444 57.5888 47.5499 63.4941C33.7331 72.3154 18.5922 90.5364 7.79765 99.3504L7.79765 99.3505Z" id="path_3" />
    <path d="M94.1134 1.00466C104.002 5.17915 124.139 61.9948 112.564 72.5794C100.989 83.1641 24.6764 64.5176 24.6764 64.5176C22.49 65.3908 17.0324 66.5213 14.5351 65.1413C10.7769 63.056 13.0897 58.3993 11.9085 56.0276C10.3942 52.9778 -0.423155 59.84 0.0128082 53.933C0.284419 50.4394 17.8213 48.4847 23.3073 50.6979C25.2689 51.4866 25.835 53.5953 25.835 53.5953C25.835 53.5953 80.1883 58.6296 85.8473 54.6549C92.8453 49.731 75.3041 31.9786 78.0337 11.9118C79.7135 -0.422933 88.6839 -1.29208 94.1134 1.00467L94.1134 1.00466Z" id="path_4" />
    <path d="M3.64981 31.9917C3.64981 31.9917 9.45014 27.7013 8.09713 23.1848C7.75112 21.9989 5.13243 25.3407 2.77201 23.8941C-0.452013 21.9046 -1.22931 10.4385 2.41218 4.47276C4.67174 0.775237 12.6164 -1.44262 15.2073 1.07609C17.7981 3.5948 18.8197 14.3303 17.9273 19.5871C16.5169 27.9724 24.1593 33.0169 24.1593 33.0169C24.1593 33.0169 11.4649 43.1767 8.26977 51.6094C7.33436 54.0857 3.64981 31.9917 3.64981 31.9917L3.64981 31.9917Z" id="path_5" />
    <clipPath id="mask_1">
      <use xlink:href="#path_1" />
    </clipPath>
    <clipPath id="mask_2">
      <use xlink:href="#path_2" />
    </clipPath>
    <clipPath id="mask_3">
      <use xlink:href="#path_3" />
    </clipPath>
    <clipPath id="mask_4">
      <use xlink:href="#path_4" />
    </clipPath>
    <clipPath id="mask_5">
      <use xlink:href="#path_5" />
    </clipPath>
  </defs>
  <g id="sign-up-form">
    <path d="M0 0L346 0L346 346L0 346L0 0Z" id="Background" fill="#FFFFFF" fill-opacity="0" fill-rule="evenodd" stroke="none" />
    <g clip-path="url(#mask_1)">
      <path d="M135.805 265.93C90.0276 269.047 41.0949 232.045 41.0949 187.013C41.0949 141.979 113.653 161.171 137.191 125.429C193.586 39.8507 307.437 177.561 267.413 192.931C187.215 223.706 245.615 258.447 135.805 265.93L135.805 265.93Z" id="Shape" fill="#F0EFF4" fill-rule="evenodd" stroke="none" />
      <path d="M260.887 185.202C260.912 185.322 260.974 185.435 260.999 185.555C261.201 186.68 261.331 187.445 261.197 188.428C260.877 190.53 259.407 192.567 260.257 195.23C261.172 199.002 265.793 201.296 267.036 197.556C267.749 195.086 266.535 192.079 265.178 189.351C264.422 187.888 263.552 186.487 262.576 185.161C263.645 185.091 264.696 184.856 265.693 184.464C265.903 184.381 266.075 184.305 266.285 184.222C266.345 184.252 266.443 184.274 266.503 184.304C268.335 183.527 269.838 182.773 271.702 182.282C274.907 181.359 278.968 180.435 279.271 177.005C279.303 175.917 278.306 174.823 277.263 174.029C275.853 173.084 274.132 172.722 272.461 173.019C269.582 173.378 267.595 175.101 266.518 177.227C265.855 178.564 265.549 180.08 265.342 181.619C265.296 182.377 265.117 183.203 265.305 183.998C264.082 184.489 262.73 184.672 261.294 184.705C261.224 184.686 261.15 184.686 261.08 184.705C260.567 184.717 260.053 184.694 259.543 184.633C259.426 182.284 260.383 180.099 261.222 177.853C261.496 176.967 261.868 176.103 261.963 175.127C262.7 175.351 263.463 175.481 264.232 175.513C265.654 175.607 266.863 174.786 266.321 173.437C265.353 171.63 261.994 170.752 260.173 170.403C258.622 170.166 257.048 170.127 255.487 170.285C255.272 170.292 255.058 170.32 254.849 170.369C255.764 169.482 256.64 168.602 257.496 167.685C258.26 166.91 258.982 166.06 259.726 165.248C262.156 165.769 264.369 167.122 266.62 168.468C269.353 170.218 272.21 172.111 275.01 171.227C277.364 170.389 277.241 167.417 274.562 165.614C271.846 163.819 268.589 163.046 265.707 162.864C264.536 162.788 263.361 162.811 262.193 162.931C262.078 162.954 261.941 162.939 261.787 162.97L263.796 160.827C264.931 159.646 266.088 158.503 267.224 157.322C267.36 157.337 267.535 157.344 267.71 157.351C268.453 157.455 268.765 157.476 269.528 157.617C271.429 158.034 273.359 158.653 275.257 158.986C277.076 159.288 278.926 159.357 280.763 159.192C282.098 159.054 283.509 158.901 284.613 158.351C286.61 157.333 286.804 155.007 283.958 153.362C281.471 152.077 278.654 151.572 275.875 151.916C275.143 152.06 274.271 152.106 273.623 152.4L273.077 151.883L273.154 151.868C274.731 151.017 276.472 150.383 278.251 149.74C280.588 148.947 283.082 148.207 285.612 147.376C286.666 147.959 287.58 148.445 288.665 149.313C291.577 151.611 293.655 155.321 296.487 158.01C298.429 159.874 303.519 163.158 305.968 162.717C311.02 161.806 301.414 154.584 299.128 152.871C296.502 150.933 293.677 149.325 290.82 147.89C289.874 147.406 288.896 146.987 287.893 146.636C291.245 145.518 294.556 144.325 297.625 142.93C298.179 142.697 298.711 142.425 299.206 142.162L299.265 142.191C299.64 142.326 300.074 142.49 300.469 142.662C301.1 142.87 302.392 143.573 302.651 143.73C307.689 146.691 310.837 151.855 316.313 154.605C318.617 155.816 321.524 156.575 323.363 155.506C326.402 152.911 319.673 148.077 316.579 146.065C313.648 144.27 310.472 143.106 307.31 142.272C305.727 141.831 304.109 141.523 302.474 141.352C301.964 141.287 301.45 141.263 300.936 141.28C304.734 139.29 308.284 136.859 311.512 134.038C311.67 134.09 311.845 134.097 312.002 134.15C312.908 134.405 313.797 134.716 314.664 135.082C316.898 136.015 318.592 137.054 320.615 138.529C323.118 140.325 325.635 142.45 328.618 143.195C329.655 143.365 330.846 143.505 331.543 142.993C332.142 142.459 332.276 141.476 331.657 140.599C330.803 139.228 329.284 138.194 327.845 137.23C326.534 136.352 325.164 135.565 323.745 134.875C322.024 134.006 320.218 133.316 318.356 132.815C316.869 132.395 315.356 132.067 313.828 131.834C314.385 131.225 314.943 130.616 315.479 129.97L315.518 129.962C317.834 128.674 320.552 127.722 322.098 125.67C322.722 124.799 323.266 123.859 323.197 122.666C323.223 120.955 320.751 119.445 318.976 119.253C317.12 118.994 315.862 120.033 315.412 121.37C314.938 123.044 315.367 124.957 315.247 126.728C315.22 127.562 315.111 128.392 314.923 129.205C314.887 129.285 314.891 129.377 314.933 129.453C314.285 130.205 313.636 130.957 312.911 131.724C312.379 132.28 311.817 132.808 311.228 133.303C311.551 132.199 311.44 130.931 310.786 129.688C310.38 128.81 309.383 128.174 308.399 127.869C306.178 127.266 305.564 128.843 306.47 130.537C307.149 131.902 308.636 133.565 308.58 134.533C308.59 134.799 308.582 135.065 308.554 135.329C308.503 135.419 308.5 135.529 308.547 135.622C306.973 136.857 305.32 137.989 303.599 139.009C304.224 137.68 304.687 136.215 304.268 134.55C303.894 133.043 302.351 131.433 300.529 131.541C298.824 131.628 297.678 132.561 296.749 133.576C294.867 135.486 294.552 138.668 293.833 140.974C293.51 142.078 292.97 143.099 292.409 144.084C292.357 144.219 292.149 144.385 292.177 144.587C287.777 146.202 283.268 147.548 278.668 149.036C276.696 149.716 274.744 150.433 272.957 151.367C273.736 150.465 274.475 149.57 275.194 148.638C276.111 148.749 276.941 148.627 277.468 148.191C278.049 147.701 277.794 146.712 277.049 146.068C277.431 145.451 277.852 144.828 278.213 144.174C280.223 145.318 282.159 146.102 283.686 145.468C284.979 144.797 283.989 142.953 282.631 142.056C282.059 141.665 281.453 141.325 280.821 141.039C281.489 140.536 282.198 140.09 282.941 139.707C286.249 137.974 290.19 136.991 293.028 134.725C294.458 133.611 296.06 132.422 296.45 130.597C296.576 129.907 296.619 129.066 296.007 128.354C293.679 126.108 290.515 127.563 288.725 128.415C287.185 129.179 285.868 130.327 284.902 131.748C283.948 133.1 283.334 134.678 282.601 136.195C282.289 136.821 281.945 137.431 281.57 138.021C281.661 137.878 281.731 137.698 281.822 137.555C282.499 136.09 283.057 134.566 283.615 133.041C283.692 133.026 283.71 132.981 283.787 132.966C283.85 132.923 283.89 132.854 283.896 132.778C283.885 132.695 283.855 132.615 283.808 132.545C283.825 132.5 283.843 132.455 283.882 132.448C283.991 132.471 284.102 132.414 284.148 132.312C285.152 129.826 288.289 125.422 285.844 122.2C285.513 121.9 285.085 121.733 284.639 121.729C283.473 121.709 282.866 122.536 282.491 123.317C281.642 125.316 281.584 127.657 282.171 130.08C282.323 130.76 282.513 131.431 282.74 132.09C282.824 132.24 282.831 132.405 282.954 132.547C282.572 132.705 282.211 132.901 281.829 133.06C281.457 131.876 281.192 130.661 281.037 129.429C280.814 127.809 280.57 125.235 278.652 123.949C278.04 123.603 277.266 123.792 276.883 124.381C276.076 125.538 276.457 127.211 277.044 128.718C277.564 130.028 278.255 131.264 279.101 132.391C279.453 132.876 279.849 133.327 280.284 133.739L280.305 133.777C279.717 134.101 279.129 134.425 278.598 134.779C276.594 136.089 274.894 137.713 273.212 139.293C273.044 139.451 272.893 139.564 272.725 139.722C272.497 139.392 272.308 139.055 272.119 138.717C271.506 137.614 270.978 136.466 270.539 135.284C269.777 133.311 268.707 130.027 266.151 128.366C265.332 127.82 264.428 128.04 264.081 128.566C263.517 129.467 264.097 130.81 264.552 131.927C265.37 133.846 266.672 135.712 268.124 137.465C268.981 138.461 269.818 139.42 270.77 140.356C270.99 140.521 271.176 140.776 271.414 140.895C270.292 141.948 269.132 143.009 267.972 144.069C266.934 141.985 266.273 140.118 265.444 137.951C264.643 135.987 263.818 133.903 262.058 132.21C260.626 130.952 259.025 131.226 258.611 132.472C257.842 134.538 258.811 137.26 260.112 139.583C260.964 140.999 261.983 142.307 263.149 143.478C263.846 144.192 264.581 144.866 265.351 145.5C265.551 145.627 265.733 145.799 265.932 145.926C265.389 146.408 264.828 146.934 264.285 147.416L262.655 148.86C262.617 148.868 262.578 148.875 262.599 148.912C262.561 148.92 262.582 148.957 262.582 148.957C262.168 149.288 261.737 149.664 261.324 149.995L261.285 150.003C259.897 146.989 258.235 143.946 255.712 141.197C254.55 139.886 253.252 138.561 251.659 137.626C249.887 136.602 247.17 135.722 246.923 137.726C246.831 139.7 248.324 141.528 250.138 143.085C248.927 142.45 247.628 142.04 246.401 141.99C244.89 141.912 243.581 143.028 243.419 144.533C243.305 147.385 246.22 150.223 248.288 152.77C249.412 154.088 250.444 155.55 250.436 156.758C250.418 157.137 250.356 157.512 250.25 157.877C250.198 158.012 250.085 158.117 250.169 158.267C250.216 158.367 250.305 158.44 250.411 158.469C250.316 158.561 250.229 158.662 250.152 158.77C249.388 159.087 248.746 159.546 248.644 160.356C248.654 160.443 248.644 160.53 248.616 160.612C248.573 160.699 248.517 160.78 248.451 160.852C248.095 161.342 247.766 161.852 247.466 162.378C247.615 160.351 247.84 158.309 246.991 156.105C245.652 152.416 241.865 148.709 240.75 145.267C240.187 143.422 240.36 141.973 240.211 140.255C240.407 140.299 240.579 140.224 240.61 140.051C240.709 139.616 240.79 139.226 240.909 138.827C241.274 137.341 241.576 136.199 242.04 134.735C242.296 133.894 242.591 133.045 242.886 132.197L242.924 132.189C243.466 132.082 244.015 132.016 244.567 131.99C245.611 131.868 248.119 131.915 249.313 132.138C251.793 132.44 254.899 133.785 256.689 132.475C258.025 131.421 256.902 129.188 255.145 128.036C253.083 126.569 250.508 125.869 248.362 126.084C246.775 126.23 245.583 127.005 244.469 127.766C244.271 127.895 244.069 128.018 243.864 128.135C244.092 127.091 244.282 126.055 244.538 125.214C245.23 122.706 246.338 120.407 247.328 118.049C247.524 118.093 247.696 118.018 247.871 118.025C248.337 118.017 248.803 118.008 249.251 118.045C250.604 118.151 251.946 118.374 253.261 118.712C254.851 119.106 256.468 119.703 258.069 119.888C260.335 120.191 262.573 119.833 263.859 118.54C265.048 117.224 263.508 115.238 261.621 114.237C259.692 113.16 257.555 112.707 255.591 112.636C252.712 112.537 251.03 113.659 249.967 115.658C249.676 116.131 248.964 116.77 248.386 116.884C248.181 116.96 247.969 117.015 247.752 117.051C247.931 116.683 248.051 116.285 248.209 115.879C249.096 113.415 249.284 110.924 250.806 108.751C251.615 107.677 253.343 106.254 254.199 104.879C254.62 104.256 255.04 103.632 255.402 102.978C258.064 102.537 261.429 103.123 264.386 102.749C265.486 102.574 266.579 102.234 267.168 101.451C268.363 99.8424 267.24 98.0666 264.737 97.1863C262.072 96.1715 259.882 97.2268 258.158 98.2735C257.605 98.6456 257.107 99.0941 256.679 99.6056C256.82 99.0897 256.994 98.583 257.198 98.0885C257.622 97.0895 258.141 96.4879 259.024 95.7733C260.008 95.1049 260.932 94.3524 261.786 93.5243C262.439 93.1592 263.071 92.757 263.678 92.3195C264.47 91.7476 265.262 91.1755 265.694 90.3416C266.307 89.2221 266.603 87.4579 264.996 86.1931C264.11 85.4521 262.78 85.2147 261.939 85.5467C259.924 86.6091 259.687 89.7766 260.249 92.0792C260.386 92.5521 260.522 93.0246 260.658 93.4968L260.679 93.5341C260.304 93.8577 259.929 94.1812 259.533 94.4671C258.831 94.9221 258.182 95.4547 257.599 96.0548C257.564 94.7716 258.052 93.4272 257.955 92.0316C257.883 89.8404 256.246 87.375 253.872 85.8865C250.907 84.1819 248.552 85.4777 249.188 88.1404C249.453 89.3782 250.223 90.5997 250.972 91.7839C251.86 93.0651 252.809 94.3765 253.985 95.5596C254.573 96.1513 255.217 96.6902 255.882 97.2666C256.081 97.4375 256.295 97.5903 256.522 97.7232C256.111 98.5946 255.901 99.5929 255.609 100.524C255.144 101.911 254.457 103.212 253.575 104.378C252.793 105.656 251.083 107.033 250.052 108.401C249.854 108.666 249.684 108.951 249.543 109.25C249.503 109.168 249.447 109.094 249.379 109.033C248.936 107.248 248.94 105.499 248.731 103.751C248.404 100.57 247.1 97.2479 243.21 95.2674C241.463 94.3632 239.191 93.8952 238.031 94.956C236.723 96.212 236.935 98.5005 238.121 100.388C239.79 103.139 242.72 105.391 245.633 107.231C246.809 107.957 247.874 108.33 248.643 109.094L248.685 109.169C248.741 109.409 248.816 109.645 248.909 109.873C248.965 109.964 249.062 110.022 249.168 110.031C248.407 111.803 248.083 113.823 247.455 115.527C246.511 118.044 245.329 120.441 244.385 122.956C244.277 122.686 244.141 122.214 244.032 121.944C243.596 120.593 243.241 119.219 242.967 117.826C242.195 114.233 241.116 109.785 236.649 107.461C230.805 104.742 226.106 108.039 229.902 113.366C231.984 116.244 235.275 118.3 238.552 120.027C240.204 120.991 242.004 121.76 243.138 122.869C243.327 123.11 243.487 123.371 243.618 123.648C243.701 123.798 243.687 123.925 243.827 124.023L244.006 124.113C243.939 124.376 243.834 124.646 243.767 124.908C243.22 126.681 242.931 128.611 242.502 130.442C242.399 130.894 242.261 131.339 242.092 131.771C242.053 131.779 242.074 131.816 242.057 131.861C241.952 132.131 241.885 132.394 241.78 132.665C239.904 130.537 238.88 127.868 237.054 125.523C235.258 123.463 232.469 121.308 229.747 121.261C225.747 121.299 228.468 126.464 230.673 128.568C232.476 130.336 234.783 131.629 237.15 132.494C237.423 133.44 237.773 134.369 238.143 135.337C237.877 135.015 237.572 134.7 237.306 134.378C236.554 133.569 234.752 131.344 233.645 131.812C232.604 132.474 234.301 134.512 235.341 135.222C236.326 135.96 237.435 136.516 238.615 136.866L238.653 136.858C238.933 137.7 239.132 138.567 239.247 139.446C239.334 140.141 239.383 140.84 239.392 141.54C239.312 141.472 239.21 141.367 239.13 141.3C238.745 140.918 238.398 140.529 238.052 140.139C237.257 139.255 236.54 138.357 235.539 137.638C233.673 136.216 232.037 137.038 233.3 138.911C234.272 140.342 236.107 141.022 237.68 141.461C237.995 141.564 238.783 141.826 239.147 142.17L239.167 142.208C239.248 142.275 239.29 142.35 239.371 142.417C239.457 144.023 239.701 145.681 240.722 147.352C242.653 150.8 245.786 154.178 246.47 157.539C246.902 159.992 246.305 162.439 246.433 165.036C246.48 168.023 247.174 171.173 247.319 174.182C247.379 174.67 247.438 175.157 247.515 175.6C246.475 174.432 245.38 173.316 244.228 172.253C241.847 170.142 239.429 168.038 237.182 165.859C237.193 165.651 237.237 165.446 237.312 165.251C237.521 164.496 237.837 163.775 238.252 163.11C239.29 161.449 241.704 159.726 242.151 157.391C242.86 154.381 239.058 152.174 236.248 153.268C233.792 154.459 233.808 157.619 234.051 160.192C234.179 161.248 234.392 162.291 234.686 163.313L234.382 162.998C232.797 161.313 231.285 159.53 229.717 157.8C229.71 157.635 229.546 157.418 229.479 157.223C229.258 156.833 229.072 156.424 228.923 156.001C228.381 154.651 227.92 152.453 227.942 151.117C227.896 148.131 229.726 145.898 228.968 142.635C228.594 140.67 226.285 137.92 224.119 139.096C223.436 139.48 223.116 140.208 222.833 140.847C222.373 141.937 222.211 143.175 222.244 144.458C222.315 146.322 222.707 148.159 223.404 149.889C223.83 150.987 224.329 152.057 224.897 153.089C222.079 150.731 219.002 148.674 216.208 146.436C216.246 146.342 216.234 146.235 216.177 146.151C216.122 145.912 216.086 145.669 216.069 145.423C216.02 144.726 216.119 143.375 216.46 142.683C217.715 140.189 219.146 137.702 218.998 134.611C218.906 131.009 217.877 124.97 212.852 122.797C209.414 121.393 207.853 124.031 207.838 126.447C207.586 130.657 209.912 135.193 211.821 139.519C212.594 141.281 213.178 142.705 213.79 144.332C213.067 143.66 212.382 142.947 211.739 142.198C209.961 140.093 208.708 138.009 207.211 135.641C205.917 133.483 204.468 131.355 203.174 129.196C202.922 128.746 202.688 128.251 202.436 127.802C202.487 127.751 202.512 127.681 202.505 127.61C202.499 127.538 202.46 127.474 202.401 127.434C200.571 125.464 199.444 123.606 197.803 121.515C195.301 118.346 192.389 115.133 188.703 112.904C187.068 111.895 185.293 111.703 184.69 113.071C184.328 114.182 184.968 115.554 185.584 116.806C186.234 117.968 186.945 119.159 187.883 120.223C189.412 121.961 191.281 123.465 193.224 124.872C195.467 126.456 197.846 127.839 200.331 129.007L202.768 130.15C202.829 130.18 202.896 130.195 202.964 130.194C203.8 131.611 204.773 133.042 205.648 134.451C205.395 134.404 205.146 134.342 204.902 134.265C203.697 133.965 202.527 133.539 201.411 132.997C197.387 131.084 193.635 128.203 189.23 126.907C188.386 126.7 187.507 126.581 186.859 126.875C186.103 127.261 185.756 128.152 186.051 128.948C186.628 130.665 188.455 132.095 190.171 133.172C194.158 135.632 198.774 137.303 202.945 137.189C204.343 137.164 205.716 137.018 206.882 136.581L206.921 136.573C208.191 138.612 209.499 140.642 211.113 142.53C212.502 144.171 214.175 145.63 215.901 146.955C216.166 147.176 216.441 147.386 216.724 147.584C214.724 147.145 212.866 146.346 210.767 145.428C208.61 144.479 206.457 143.613 204.23 142.845C201.572 141.995 198.652 140.906 196.182 141.309C194.68 141.605 194.37 143.039 195.438 144.41C196.406 145.759 198.021 146.731 199.477 147.65C201.939 149.102 204.611 150.162 207.398 150.793C210.203 151.447 212.994 151.772 215.649 151.623C217.47 151.515 219.348 151.353 220.956 150.787C220.994 150.779 220.973 150.742 220.973 150.742C223.14 152.395 225.268 154.057 227.092 155.862C228.208 157.016 229.286 158.177 230.326 159.345C227.576 159.185 224.85 158.746 222.19 158.034C218.425 157.194 213.754 155.576 211.221 157.697C209.657 158.879 210.279 161.211 212.345 162.76C214.33 164.242 216.743 164.807 218.946 164.998C222.36 165.366 225.191 164.309 227.661 162.991C228.727 162.448 230.075 161.725 230.997 161.46C231.257 161.368 231.53 161.314 231.806 161.301L232.037 161.255C232.73 162.034 233.483 162.843 234.214 163.615C234.498 163.892 234.743 164.177 235.005 164.416L235.047 164.491C235.089 164.566 235.149 164.596 235.268 164.656L236.423 165.801C236.414 165.888 236.446 165.974 236.509 166.034C236.596 166.105 236.698 166.156 236.807 166.183C238.669 167.981 240.626 169.717 242.621 171.447C244.328 172.921 245.932 174.509 247.423 176.202C247.503 176.269 247.566 176.382 247.668 176.486C247.685 176.584 247.682 176.683 247.66 176.779C247.417 179.324 247.839 181.986 248.282 184.688C246.659 185.839 243.808 185.485 241.601 186.128C240.067 186.596 238.833 187.754 238.92 189.36C238.975 191.139 240.378 193.11 242.366 194.216C245.094 195.801 247.718 194.452 248.197 192.402C248.639 190.901 248.749 189.339 248.876 187.733C249.281 189.526 249.668 191.364 249.839 193.119C250.11 194.98 249.839 196.864 249.884 198.853C249.936 199.175 249.852 199.483 249.981 199.791C250.187 200.083 250.709 200.022 250.657 199.699C250.532 198.559 250.68 196.99 250.702 195.654C250.676 194.337 250.582 193.023 250.421 191.715C250.16 189.644 249.566 187.514 249.147 185.391L249.19 185.008C249.201 184.967 249.192 184.922 249.165 184.888C249.511 184.82 249.508 184.738 249.74 184.692C251.025 184.314 252.363 184.26 253.785 184.353C253.733 184.488 253.778 184.646 253.705 184.744C253.659 185.044 253.589 185.224 253.557 185.397C253.234 186.501 252.711 187.477 252.21 188.492C251.277 190.34 250.224 192.586 251.785 195.066C254.391 199.338 259.393 198.644 258.324 194.444C257.818 192.088 255.848 189.564 255.1 187.464C254.848 186.556 254.786 185.986 255.003 185.153C255.04 184.936 255.11 184.725 255.211 184.53C256.461 184.7 257.694 184.915 258.982 185.077C259.614 185.16 260.25 185.201 260.887 185.202L260.887 185.202ZM238.312 133.889C238.158 133.462 238.043 133.027 237.91 132.637C238.225 132.741 238.579 132.838 238.873 132.905C239.601 133.136 240.092 133.248 240.672 133.674L240.693 133.712L240.753 133.741C240.914 133.876 241.019 134.064 241.197 134.153C241.18 134.198 241.201 134.236 241.163 134.243C240.663 135.732 240.24 137.246 239.895 138.779C239.878 138.824 239.899 138.861 239.861 138.869C239.637 137.248 238.945 135.554 238.312 133.889L238.312 133.889ZM252.553 173.07C252.977 172.987 254.591 173.043 254.984 173.132C255.361 173.188 255.734 173.268 256.101 173.37C255.535 174.311 255.206 175.375 255.142 176.472C254.734 176.066 254.268 175.723 253.76 175.454C252.825 174.89 251.795 174.5 250.72 174.305L250.699 174.267C251.015 173.914 251.33 173.56 251.667 173.245L251.705 173.237C251.979 173.142 252.264 173.085 252.553 173.07L252.553 173.07ZM264.04 159.282C263.763 157.618 263.285 155.993 262.615 154.445C262.178 153.421 261.689 152.42 261.149 151.446C261.053 151.265 260.942 151.092 260.817 150.929L261.437 150.432C262.904 151.141 264.203 152.01 265.666 153.095C266.468 153.686 267.333 154.39 268.253 155.04C266.876 156.477 265.439 157.883 264.041 159.282L264.04 159.282ZM278.278 135.507C279.369 134.74 280.524 134.067 281.729 133.496C281.978 133.406 282.167 133.285 282.416 133.195C281.978 134.321 281.56 135.485 281.062 136.582C280.564 137.679 280.007 138.745 279.448 139.812C279.385 139.855 279.345 139.924 279.34 140C279.305 140.09 279.248 140.143 279.213 140.233C277.966 139.862 276.678 139.64 275.378 139.573C274.756 139.53 274.17 139.478 273.568 139.472C275.141 138.081 276.676 136.697 278.278 135.508L278.278 135.507ZM272.334 140.632C273.756 141.184 275.538 142.456 277.39 143.548C277.007 144.164 276.663 144.772 276.261 145.351C275.578 144.976 274.839 144.715 274.072 144.575C272.214 144.214 270.311 144.14 268.43 144.355C269.719 143.143 271.065 141.879 272.334 140.632L272.334 140.632ZM265.976 146.544C266.114 146.429 266.245 146.306 266.369 146.175C266.624 146.25 266.915 146.234 267.171 146.309C268.151 146.532 269.174 146.83 270.158 147.135C271.24 147.463 272.739 148 274.129 148.268C273.41 149.2 272.632 150.101 271.854 151.004C270.874 150.323 269.767 149.875 268.664 149.51C267.659 149.162 266.62 148.92 265.565 148.789C264.882 148.715 264.22 148.679 263.558 148.643C264.403 147.935 265.209 147.235 265.976 146.543L265.976 146.544ZM252.5 155.48C253.155 154.436 253.807 153.309 254.166 152.115C254.522 152.752 254.879 153.389 255.296 154.056C254.059 154.93 252.873 155.872 251.742 156.878C251.994 156.412 252.247 155.945 252.499 155.48L252.5 155.48ZM251.369 158.199C252.729 156.911 254.179 155.721 255.708 154.64C256.964 156.503 258.396 158.241 259.984 159.831C260.53 160.348 261.136 160.894 261.699 161.366C261.768 161.428 261.841 161.483 261.92 161.531C261.009 162.501 260.118 163.508 259.228 164.516C259.148 164.49 259.061 164.507 258.997 164.561C258.94 164.587 258.899 164.636 258.882 164.695C258.866 164.755 258.877 164.819 258.912 164.869C258.411 165.426 257.948 165.974 257.426 166.493C257.049 164.903 256.749 163.298 255.983 161.701C255.025 159.684 253.439 157.999 251.369 158.199L251.369 158.199ZM248.069 174.078C247.868 170.664 247.089 167.363 247.169 164.144C247.18 163.934 247.169 163.686 247.18 163.476C247.59 163.52 247.643 162.927 247.846 162.679C248.081 162.258 248.337 161.875 248.593 161.492C248.946 162.504 249.67 163.568 250.465 164.452C251.564 165.65 253.122 166.216 254.512 166.942C254.778 167.094 255.032 167.267 255.272 167.458C255.292 167.496 255.373 167.563 255.394 167.601C255.454 167.631 255.559 167.818 255.618 167.848C255.697 167.951 255.761 168.064 255.807 168.185C254.391 169.629 252.856 171.013 251.401 172.465C251.53 171.401 251.531 170.325 251.403 169.26C251.295 168.532 251.124 167.692 250.512 166.981C250.064 166.486 249.223 166.361 248.869 166.721C248.494 167.045 248.498 167.585 248.48 168.088C248.539 169.033 248.832 170.016 249.182 170.946C249.476 171.727 249.711 172.529 249.884 173.346C249.931 173.545 249.959 173.749 249.967 173.953C249.393 174.608 248.839 175.299 248.307 176.028C248.24 175.376 248.135 174.73 248.069 174.078L248.069 174.078ZM249.669 184.04C249.408 184.098 249.151 184.177 248.902 184.275L248.863 184.282C248.577 182.549 248.341 180.599 248.244 179.203C248.215 178.926 248.217 178.647 248.248 178.37C248.29 178.441 248.364 178.489 248.447 178.497C248.762 178.601 248.987 178.391 248.819 178.091C248.752 177.896 248.725 177.693 248.658 177.498C248.812 177.468 248.924 177.363 248.879 177.205C248.918 177.198 248.918 177.198 248.977 177.228C249.361 177.249 249.742 177.314 250.112 177.42C250.84 177.651 252.15 178.309 253.172 178.607C253.862 178.846 254.643 178.942 255.2 178.79C255.252 179.265 255.343 179.734 255.472 180.193C255.858 181.602 256.499 182.929 257.364 184.107C257.406 184.181 257.487 184.249 257.529 184.324C255.025 183.901 251.936 183.428 249.67 184.04L249.669 184.04Z" id="Shape" fill="#DAD8E4" fill-rule="evenodd" stroke="none" />
      <path d="M96.8772 138.618C81.095 142.346 57.3891 155.893 51.9277 130.805C48.1862 113.616 92.6173 115.084 101.845 105.559C122.145 84.6081 153.389 103.563 140.029 110.298C113.258 123.787 134.737 129.675 96.8772 138.618L96.8772 138.618Z" id="Shape" fill="#F0EFF4" fill-rule="evenodd" stroke="none" />
      <path d="M217.412 166.634C211.461 175.55 151.526 180.44 143.736 169.483C131.695 152.564 166.372 104.21 166.372 104.21C165.925 101.899 165.841 96.3122 167.662 94.1321C170.42 90.8183 166.317 87.671 168.869 86.9562C172.15 86.0409 174.778 89.1395 180.492 90.689C183.878 91.5976 183.405 100.484 180.204 105.458C179.065 107.223 176.889 107.384 176.889 107.384C176.889 107.384 163.512 140.299 166.353 146.603C169.877 154.4 186.653 145.423 212.429 141.784C224.756 140.042 220.692 161.719 217.412 166.634L217.412 166.634Z" id="Shape" fill="#FFC197" fill-rule="evenodd" stroke="none" />
      <g id="Mask-Group" transform="translate(141.19592 86.79025)">
        <path d="M76.2164 79.8434C70.2652 88.7601 10.3304 93.6498 2.54005 82.6928C-9.50074 65.7734 25.1761 17.4199 25.1761 17.4199C24.7287 15.1088 24.6453 9.52197 26.466 7.34183C29.2239 4.02801 25.1212 0.880802 27.6735 0.165962C30.9536 -0.749378 33.582 2.34922 39.2962 3.89879C42.6816 4.80739 42.209 13.6939 39.0083 18.6678C37.8691 20.4324 35.6929 20.5936 35.6929 20.5936C35.6929 20.5936 22.3164 53.5088 25.1572 59.8127C28.6811 67.6102 45.457 58.6325 71.2333 54.994C83.5605 53.2517 79.4957 74.9284 76.2164 79.8434L76.2164 79.8434Z" id="Shape" fill="none" fill-rule="evenodd" stroke="none" />
        <g clip-path="url(#mask_2)">
          <g id="Group" transform="translate(-24.124878 16.866507)">
            <path d="M67.1826 38.8868C69.4388 40.6168 69.9717 44.7141 70.3544 47.2773C70.7604 49.9861 70.6369 52.7669 69.7316 55.3782C68.3706 59.3089 65.547 62.5231 64.3869 66.5249C63.5252 69.5024 63.7312 72.8579 64.7409 75.7804C65.2113 77.1469 65.9235 78.4177 66.8433 79.5324C72.2958 86.1042 83.5235 83.651 90.4089 81.3404C98.1573 78.7397 105.811 73.7849 109.809 66.4367C116.012 55.0441 110.385 40.9904 99.6993 34.6728C95.4608 32.1964 90.6875 30.7788 85.7844 30.5406C79.9611 30.2349 73.982 31.3397 68.9503 34.3524L67.1826 38.8868Z" id="Shape" fill="#FE9400" fill-rule="evenodd" stroke="none" />
            <path d="M44.5132 2.6796C40.6416 9.98522 35.6474 25.9597 33.0424 33.7561C29.7177 43.7662 28.3936 51.354 33.5029 60.3177C39.5479 70.9523 59.7263 66.7958 69.5995 64.064C71.7783 63.4596 73.9296 62.7604 76.0474 61.9684C79.0348 60.8759 81.9358 59.5606 84.7262 58.0336C90.4832 54.8157 95.2902 50.394 99.5936 45.4357C100.831 44.0138 101.94 42.4601 103.249 41.1077C103.638 40.7034 104.228 40.1075 104.861 40.181C105.926 40.3033 106.171 42.2679 106.315 43.0322C106.862 46.1981 106.818 49.506 106.603 52.6996C105.753 65.322 101.652 77.9313 90.3677 84.8257C83.4016 89.0846 74.7229 90.4086 66.7783 91.5744C58.8479 92.7373 50.5002 93.7888 42.4692 93.0569C28.134 91.75 13.0073 85.521 5.1636 72.8079C-3.9035 58.0809 0.270302 38.3993 7.71137 23.9134C9.56801 20.3022 11.7125 16.8293 14.2601 13.6644C19.2252 7.49713 25.8748 1.88311 33.7188 0L44.5132 2.6796Z" id="Shape" fill="#000000" fill-opacity="0.101960786" fill-rule="evenodd" stroke="none" />
          </g>
        </g>
      </g>
      <path d="M88.8774 88.7385C88.171 87.6268 86.8287 86.8287 85.289 86.6038C83.7722 86.3601 82.2198 86.7095 80.9538 87.5797L15.6129 134.613C13.9191 135.833 13.4526 137.813 14.481 139.431L96.7113 268.87C97.4279 269.998 98.7591 270.779 100.31 271.021C101.826 271.265 103.379 270.916 104.645 270.045L169.985 223.012C171.679 221.792 172.146 219.812 171.117 218.194L88.8774 88.7385ZM87.8954 89.1364L170.136 218.592C170.936 219.851 170.575 221.398 169.242 222.357L103.902 269.391C102.91 270.069 101.697 270.346 100.509 270.165C99.2926 269.992 98.2541 269.358 97.6933 268.475L15.4631 139.034C14.6528 137.759 15.0133 136.212 16.3454 135.253L81.6856 88.2195C82.6777 87.5412 83.8902 87.2646 85.0783 87.4456C86.3064 87.6344 87.3345 88.2527 87.8954 89.1355L87.8954 89.1364Z" id="Shape" fill="#77536F" fill-rule="evenodd" stroke="none" />
      <path d="M101.522 87.5574C101.281 87.1711 100.887 86.9047 100.439 86.8239C99.9993 86.7403 99.5444 86.8367 99.1762 87.0915L29.5378 137.218C28.8299 137.732 28.6463 138.71 29.1194 139.446L110.545 267.619C110.784 268 111.174 268.261 111.618 268.337C112.058 268.429 112.517 268.332 112.881 268.069L182.519 217.942C183.228 217.437 183.417 216.464 182.947 215.731L101.522 87.5574Z" id="Shape" fill="#A9A5C6" fill-rule="evenodd" stroke="none" />
      <path d="M154.333 188.348C153.174 186.525 151.019 185.23 148.493 184.859C145.966 184.488 143.373 185.07 141.463 186.445L105.079 212.634C100.443 215.971 99.1931 221.358 102.012 225.794C103.171 227.618 105.325 228.911 107.851 229.282C110.378 229.653 112.971 229.071 114.872 227.703L151.264 201.506C155.891 198.176 157.151 192.785 154.333 188.348L154.333 188.348ZM153.549 188.661L153.55 188.663C156.189 192.817 155.008 197.865 150.675 200.985L114.282 227.181C112.586 228.402 110.265 228.926 108.009 228.594C105.762 228.255 103.83 227.108 102.795 225.48C100.156 221.326 101.336 216.278 105.67 213.158L142.063 186.961C143.759 185.74 146.08 185.217 148.326 185.554C150.581 185.886 152.514 187.033 153.548 188.661L153.549 188.661Z" id="Shape" fill="#FFFFFF" fill-rule="evenodd" stroke="none" />
      <path d="M183.601 176.723C182.123 174.397 179.75 172.783 177.044 172.262C174.337 171.74 171.535 172.358 169.298 173.969L122.737 207.483C117.855 210.996 116.562 217.707 119.79 222.782C121.268 225.109 123.64 226.724 126.348 227.246C129.055 227.767 131.857 227.149 134.094 225.536L180.654 192.021C185.531 188.507 186.824 181.8 183.603 176.725L183.601 176.723Z" id="Shape" fill="#77536F" fill-rule="evenodd" stroke="none" />
      <path d="M129.789 150.961C129.192 150.021 128.233 149.369 127.14 149.159C126.046 148.949 124.914 149.199 124.011 149.851L78.4915 182.617C76.5313 184.027 76.0111 186.72 77.3059 188.758C77.9023 189.696 78.8586 190.347 79.9501 190.558C81.0415 190.769 82.1717 190.521 83.0747 189.873L128.604 157.101C130.564 155.693 131.084 152.999 129.79 150.962L129.789 150.961ZM139.475 166.203C138.877 165.263 137.919 164.611 136.825 164.401C135.731 164.191 134.599 164.441 133.696 165.093L88.1769 197.86C86.2167 199.269 85.6965 201.963 86.9913 204.001C87.5877 204.939 88.544 205.59 89.6354 205.801C90.7269 206.012 91.857 205.764 92.7601 205.116L138.289 172.344C140.249 170.935 140.769 168.241 139.475 166.204L139.475 166.203Z" id="Shape" fill="#FFFFFF" fill-rule="evenodd" stroke="none" />
      <path d="M134.898 213.217L136.169 212.168C136.411 212.412 136.748 212.535 137.09 212.505C137.504 212.44 137.893 212.268 138.218 212.005C138.576 211.776 138.875 211.467 139.09 211.101C139.226 210.815 139.242 210.581 139.133 210.409C139.062 210.297 138.941 210.228 138.809 210.223C138.594 210.228 138.382 210.28 138.188 210.375C138.01 210.45 137.601 210.646 136.965 210.952C136.156 211.356 135.545 211.572 135.129 211.595C134.55 211.637 134.148 211.472 133.911 211.098C133.755 210.832 133.705 210.517 133.771 210.216C133.86 209.815 134.046 209.443 134.312 209.13C134.669 208.705 135.083 208.329 135.54 208.014C136.392 207.401 137.114 207.069 137.706 207.017C138.299 206.965 138.739 207.158 139.032 207.571L137.701 208.592C137.516 208.403 137.253 208.312 136.991 208.345C136.636 208.421 136.305 208.58 136.024 208.808C135.693 209.025 135.413 209.311 135.204 209.648C135.104 209.776 135.091 209.951 135.17 210.093C135.261 210.211 135.411 210.266 135.557 210.234C135.795 210.205 136.28 210.017 137.008 209.646C137.551 209.358 138.119 209.117 138.703 208.925C139.042 208.817 139.403 208.796 139.752 208.866C140.063 208.945 140.33 209.145 140.494 209.421C140.672 209.719 140.728 210.074 140.653 210.413C140.565 210.85 140.364 211.257 140.069 211.592C139.675 212.059 139.219 212.471 138.715 212.817C137.856 213.435 137.116 213.771 136.484 213.825C135.888 213.893 135.296 213.666 134.898 213.217L134.898 213.217ZM140.046 206.102L139.517 205.269L140.812 204.337L141.341 205.17L140.046 206.102ZM142.505 209.973L140.338 206.562L141.632 205.63L143.799 209.041L142.505 209.973ZM145.15 208.39L146.709 207.456C146.786 207.554 146.911 207.602 147.033 207.579C147.271 207.523 147.492 207.412 147.68 207.257C147.946 207.081 148.181 206.861 148.373 206.606C148.453 206.485 148.492 206.342 148.483 206.197C148.451 206.03 148.382 205.872 148.281 205.735L147.966 205.239C147.807 205.894 147.411 206.466 146.853 206.843C146.192 207.319 145.546 207.498 144.921 207.386C144.426 207.301 143.993 207.003 143.736 206.57C143.382 206.064 143.296 205.416 143.506 204.835C143.728 204.218 144.143 203.688 144.689 203.323C145.211 202.911 145.876 202.721 146.537 202.796L146.234 202.318L147.445 201.447L149.39 204.509C149.601 204.81 149.748 205.151 149.821 205.511C149.852 205.769 149.817 206.031 149.72 206.272C149.588 206.552 149.412 206.809 149.198 207.032C148.887 207.361 148.542 207.657 148.169 207.914C147.339 208.512 146.686 208.839 146.213 208.885C145.743 208.937 145.408 208.813 145.213 208.507C145.189 208.469 145.168 208.431 145.15 208.39L145.15 208.39ZM145.035 205.563C145.265 205.924 145.531 206.117 145.843 206.141C146.17 206.156 146.49 206.055 146.749 205.856C147.046 205.653 147.27 205.361 147.387 205.021C147.493 204.681 147.433 204.311 147.225 204.023C147 203.667 146.726 203.48 146.413 203.455C146.067 203.445 145.728 203.556 145.455 203.771C145.169 203.964 144.956 204.246 144.847 204.574C144.758 204.915 144.827 205.279 145.035 205.563L145.035 205.563ZM155.345 200.73L154.05 201.662L152.945 199.923C152.712 199.555 152.532 199.337 152.406 199.267C152.274 199.202 152.124 199.181 151.979 199.208C151.794 199.246 151.62 199.326 151.47 199.44C151.257 199.589 151.079 199.781 150.947 200.005C150.832 200.185 150.78 200.398 150.799 200.611C150.877 200.918 151.013 201.208 151.199 201.466L152.179 203.009L150.884 203.941L148.717 200.53L149.92 199.664L150.24 200.165C150.434 199.457 150.876 198.841 151.485 198.43C151.748 198.238 152.035 198.082 152.339 197.967C152.566 197.882 152.807 197.844 153.049 197.858C153.228 197.878 153.399 197.946 153.543 198.055C153.725 198.213 153.879 198.401 153.999 198.61L155.345 200.73ZM156.29 193.196L157.655 192.213L159.273 194.761C159.43 195.028 159.614 195.279 159.82 195.509C160.027 195.661 160.287 195.719 160.538 195.671C161.265 195.478 161.897 195.026 162.315 194.401C162.435 194.202 162.472 193.964 162.417 193.738C162.3 193.443 162.149 193.163 161.968 192.902L160.314 190.299L161.679 189.316L163.247 191.784C163.605 192.348 163.826 192.777 163.897 193.066C163.974 193.354 163.965 193.659 163.869 193.942C163.743 194.294 163.554 194.62 163.312 194.905C162.957 195.312 162.552 195.672 162.107 195.978C161.46 196.444 160.943 196.744 160.536 196.878C160.205 197.008 159.85 197.066 159.495 197.047C159.236 197.034 158.985 196.948 158.773 196.799C158.422 196.48 158.121 196.11 157.881 195.701L156.29 193.196ZM163.893 189.606L165.104 188.735L165.423 189.236C165.481 188.922 165.607 188.624 165.792 188.364C166.002 188.052 166.268 187.781 166.577 187.567C167.075 187.178 167.691 186.974 168.322 186.989C168.918 187.006 169.391 187.3 169.741 187.851C170.094 188.366 170.185 189.017 169.987 189.61C169.777 190.229 169.371 190.762 168.83 191.13C168.587 191.31 168.316 191.451 168.028 191.546C167.723 191.635 167.405 191.674 167.087 191.662L168.18 193.383L166.885 194.315L163.893 189.606ZM166.22 190.331C166.465 190.717 166.757 190.918 167.092 190.945C167.44 190.967 167.785 190.861 168.062 190.648C168.344 190.457 168.552 190.175 168.651 189.849C168.743 189.542 168.666 189.195 168.426 188.815C168.197 188.454 167.931 188.262 167.613 188.231C167.278 188.215 166.948 188.32 166.683 188.525C166.388 188.722 166.168 189.012 166.058 189.35C165.957 189.684 166.017 190.047 166.22 190.331L166.22 190.331Z" id="Shape" fill="#FFFFFF" fill-rule="evenodd" stroke="none" />
      <path d="M69.5502 157.349C62.7767 150.136 64.3378 137.666 73.037 129.497C81.7361 121.328 94.2791 120.553 101.053 127.766C107.826 134.979 106.265 147.448 97.5657 155.617C88.8666 163.786 76.3236 164.562 69.5502 157.349Z" id="Oval" fill="#FFFFFF" fill-rule="evenodd" stroke="none" />
      <path d="M83.4931 151.534C80.9688 151.496 78.6934 150.389 77.3557 148.283C74.9308 144.466 76.5139 138.804 80.8991 135.648C85.2843 132.491 90.8293 133.024 93.2537 136.841C94.8221 139.31 94.694 142.556 93.2461 145.388C99.1909 143.387 104.51 144.379 105.852 148.072C107.421 152.408 102.902 158.842 95.7728 162.426C88.6438 166.01 81.5596 165.405 79.9902 161.069C79.011 158.312 80.4623 154.714 83.4931 151.534L83.4931 151.534Z" id="Shape" fill="#D1CFE1" fill-rule="evenodd" stroke="none" />
      <path d="M212.021 239.283C213.547 210.497 203.429 185.445 204.35 168.989C204.94 158.55 200.421 143.056 217.577 140.546C232.286 138.395 250.464 142.282 254.048 146.24C261.302 154.225 258.668 197.521 251.774 203.426C237.957 212.248 222.816 230.469 212.021 239.283L212.021 239.283Z" id="Shape" fill="#FE9400" fill-rule="evenodd" stroke="none" />
      <g id="Mask-Group" transform="translate(204.22371 139.9322)">
        <path d="M7.79765 99.3505C9.32316 70.5652 -0.79474 45.5129 0.126308 29.0569C0.716412 18.6179 -3.80287 3.12423 13.3532 0.614179C28.0624 -1.53759 46.2405 2.35006 49.824 6.30795C57.0779 14.2929 54.444 57.5888 47.5499 63.4941C33.7331 72.3154 18.5922 90.5364 7.79765 99.3504L7.79765 99.3505Z" id="Shape" fill="none" fill-rule="evenodd" stroke="none" />
        <g clip-path="url(#mask_3)">
          <g id="Group" transform="translate(6.2725587 22.12536)">
            <path d="M31.273 0C30.0782 1.59454 29.4018 3.56796 28.8404 5.45625C27.358 10.3252 27.3007 15.1842 27.977 20.1943C28.639 25.1421 29.9492 30.2676 29.0563 35.2719C28.38 38.9741 26.3938 42.035 24.4509 45.1784C19.5723 53.0845 16.6932 55.6807 10.0869 61.5428C6.33034 64.8644 -0.995341 78.5188 0.112898 83.8327C0.875834 87.5387 6.73344 83.9405 8.9359 82.8078C14.9089 79.7293 20.2485 75.4014 26.0774 72.0206C34.3963 67.1833 43.7514 63.005 49.9836 55.3913C58.2594 45.2708 59.2524 29.9683 56.0717 17.6986C54.5603 11.8581 51.8979 5.74551 46.6446 2.39485L31.273 0Z" id="Shape" fill="#000000" fill-opacity="0.101960786" fill-rule="evenodd" stroke="none" />
          </g>
        </g>
      </g>
      <path d="M252.348 146.762C262.236 150.936 282.373 207.752 270.798 218.336C259.223 228.921 182.911 210.275 182.911 210.275C180.724 211.148 175.267 212.278 172.769 210.898C169.011 208.813 171.324 204.156 170.143 201.785C168.628 198.735 157.811 205.597 158.247 199.69C158.519 196.196 176.056 194.242 181.542 196.455C183.503 197.244 184.069 199.352 184.069 199.352C184.069 199.352 238.423 204.387 244.082 200.412C251.08 195.488 233.538 177.736 236.268 157.669C237.948 145.334 246.918 144.465 252.348 146.762L252.348 146.762Z" id="Shape" fill="#FFC197" fill-rule="evenodd" stroke="none" />
      <g id="Mask-Group" transform="translate(158.23425 145.75694)">
        <path d="M94.1134 1.00466C104.002 5.17915 124.139 61.9948 112.564 72.5794C100.989 83.1641 24.6764 64.5176 24.6764 64.5176C22.49 65.3908 17.0324 66.5213 14.5351 65.1413C10.7769 63.056 13.0897 58.3993 11.9085 56.0276C10.3942 52.9778 -0.423155 59.84 0.0128082 53.933C0.284419 50.4394 17.8213 48.4847 23.3073 50.6979C25.2689 51.4866 25.835 53.5953 25.835 53.5953C25.835 53.5953 80.1883 58.6296 85.8473 54.6549C92.8453 49.731 75.3041 31.9786 78.0337 11.9118C79.7135 -0.422933 88.6839 -1.29208 94.1134 1.00467L94.1134 1.00466Z" id="Shape" fill="none" fill-rule="evenodd" stroke="none" />
        <g clip-path="url(#mask_4)">
          <g id="Group" transform="translate(66.51392 -10.213852)">
            <path d="M11.9869 48.0486C13.2633 45.5078 17.1876 44.2158 19.6335 43.3591C22.2179 42.4521 24.9726 42.0518 27.7072 42.4503C31.8234 43.0498 35.5104 45.2202 39.6584 45.6092C42.7449 45.897 46.0021 45.0652 48.6834 43.5252C49.9374 42.8067 51.0521 41.8688 51.9744 40.7562C57.4066 34.1678 52.8913 23.5996 49.3298 17.2697C45.3217 10.1466 39.019 3.5584 31.0511 1.00942C18.6972 -2.94623 5.94882 5.21713 1.74784 16.8986C0.110385 21.5264 -0.386526 26.4809 0.299308 31.3417C1.0913 37.119 3.29809 42.7848 7.20201 47.162L11.9869 48.0486Z" id="Shape" fill="#FE9400" fill-rule="evenodd" stroke="none" />
          </g>
        </g>
      </g>
      <path d="M219.913 140.158C219.913 140.158 225.713 135.867 224.36 131.351C224.014 130.165 221.396 133.507 219.035 132.06C215.811 130.07 215.034 118.604 218.675 112.639C220.935 108.941 228.88 106.723 231.471 109.242C234.061 111.761 235.083 122.496 234.191 127.753C232.78 136.138 240.423 141.183 240.423 141.183C240.423 141.183 227.728 151.342 224.533 159.775C223.598 162.251 219.913 140.157 219.913 140.157L219.913 140.158Z" id="Shape" fill="#FFC197" fill-rule="evenodd" stroke="none" />
      <g id="Mask-Group" transform="translate(216.26328 108.165794)">
        <path d="M3.64981 31.9917C3.64981 31.9917 9.45014 27.7013 8.09713 23.1848C7.75112 21.9989 5.13243 25.3407 2.77201 23.8941C-0.452013 21.9046 -1.22931 10.4385 2.41218 4.47276C4.67174 0.775237 12.6164 -1.44262 15.2073 1.07609C17.7981 3.5948 18.8197 14.3303 17.9273 19.5871C16.5169 27.9724 24.1593 33.0169 24.1593 33.0169C24.1593 33.0169 11.4649 43.1767 8.26977 51.6094C7.33436 54.0857 3.64981 31.9917 3.64981 31.9917L3.64981 31.9917Z" id="Shape" fill="none" fill-rule="evenodd" stroke="none" />
        <g clip-path="url(#mask_5)">
          <g id="Group" transform="translate(6.497931 18.436464)">
            <path d="M0.0863099 5.3656C0.546834 5.11665 0.921026 4.60855 1.26652 4.22864C2.06008 3.3781 2.79123 2.47141 3.45428 1.51564C3.69889 1.13505 3.94352 0.747013 4.21704 0.371257C4.27465 0.276278 4.43296 0 4.57688 0C4.7208 0 4.63449 0.475053 4.62013 0.536296C4.52389 1.20093 4.36975 1.85586 4.15943 2.49363C3.36797 5.10437 1.74159 7.05892 0 9.08977L0.0863099 5.3656Z" id="Shape" fill="#000000" fill-opacity="0.101960786" fill-rule="evenodd" stroke="none" />
          </g>
        </g>
      </g>
      <path d="M220.446 117.483C219.366 117.419 218.359 116.788 217.524 116.143C214.314 113.671 214.531 109.369 217.322 106.657C219.006 105.029 222.461 103.943 224.073 106.234C224.591 105.5 225.67 105.189 226.491 104.998C227.156 104.821 227.848 104.761 228.534 104.819C233.226 105.451 232.133 111.348 235.702 113.233C236.868 112.483 238.149 114.934 238.379 115.681C239.17 118.279 238.825 122.719 235.831 123.756C235.572 124.454 234.91 124.944 234.32 125.347C232.694 126.466 230.074 127.266 228.261 126.11C228.043 125.969 227.844 125.8 227.671 125.606C226.376 124.166 227.743 122.523 228.175 121.027C228.405 120.238 228.592 119.25 227.901 118.63C227.34 118.144 226.778 118.42 226.332 118.89C225.656 119.605 225.282 120.732 224.202 120.934C222.648 121.221 221.137 119.727 220.647 118.68C220.546 118.458 220.446 117.483 220.446 117.483L220.446 117.483Z" id="Shape" fill="#000000" fill-rule="evenodd" stroke="none" />
      <g id="Group" transform="translate(147.29686 74.91067)">
        <path d="M63.2249 31.1354C63.2261 30.1031 62.6396 29.1603 61.7132 28.7051L3.90513 0.275138C3.06519 -0.134898 2.07337 -0.0839394 1.27987 0.410025C0.486372 0.903984 0.00284039 1.77145 0 2.70614L0 12.273C0.00236523 13.3043 0.587782 14.2454 1.51171 14.7034L59.331 43.1386C60.1705 43.5505 61.1633 43.4993 61.9559 43.0031C62.7485 42.5069 63.2283 41.6363 63.2246 40.7013L63.2249 31.1354Z" id="Shape" fill="#77536F" fill-rule="evenodd" stroke="none" />
        <path d="M8.15472 14.4418L6.92469 13.05L8.52511 11.4238L5.6957 9.2829L6.07387 8.07744L8.90346 10.218L8.75364 7.26676L10.217 7.91274L10.3667 10.8639L13.1037 11.1807L13.6244 12.783L10.8874 12.4661L12.7302 15.6128L11.5884 15.9576L9.75462 12.8138L8.15472 14.4418ZM18.3371 19.4435L17.1071 18.0516L18.7075 16.4254L15.8781 14.285L16.2563 13.0796L19.0859 15.2199L18.9361 12.2689L20.3995 12.9149L20.5491 15.8659L23.2861 16.1828L23.8069 17.785L21.0698 17.4682L22.9126 20.6149L21.7708 20.9595L19.937 17.8159L18.3371 19.4435ZM29.2476 24.3097L28.0175 22.9179L29.6179 21.2917L26.7885 19.1513L27.1667 17.9459L29.9963 20.0864L29.8465 17.1352L31.3099 17.7812L31.4595 20.7324L34.1966 21.0491L34.7173 22.6515L31.9803 22.3345L33.823 25.4812L32.6813 25.826L30.8475 22.6823L29.2476 24.3097ZM39.9012 30.0493L38.6712 28.6573L40.2716 27.0311L37.4422 24.8906L37.8206 23.6853L40.65 25.8257L40.5002 22.8747L41.9636 23.5206L42.1132 26.4717L44.8502 26.7886L45.371 28.3907L42.6339 28.074L44.4767 31.2205L43.3349 31.5653L41.5011 28.4217L39.9012 30.0493ZM51.1437 35.5782L49.9136 34.1864L51.514 32.5602L48.6846 30.4199L49.063 29.2144L51.8924 31.3549L51.7426 28.4037L53.206 29.0497L53.3558 32.0009L56.0927 32.3177L56.6134 33.92L53.8763 33.6031L55.7191 36.7498L54.5773 37.0946L52.7435 33.9508L51.1437 35.5782Z" id="Shape" fill="#FFFFFF" fill-rule="evenodd" stroke="none" />
      </g>
      <path d="M174.178 105.9C175.078 104.879 180.48 102.42 181.898 102.223C184.159 101.89 186.287 103.372 185.504 105.522C185.192 106.349 178.35 108.25 176.468 108.317C175.698 108.342 173.819 106.304 174.178 105.9L174.178 105.9Z" id="Shape" fill="#FFC197" fill-rule="evenodd" stroke="none" />
    </g>
  </g>
</svg>